<svg viewBox="0 0 359 312" xmlns="http://www.w3.org/2000/svg" fill-rule="evenodd" clip-rule="evenodd" stroke-linejoin="round" stroke-miterlimit="1.414"><path d="M353.633 155.962L266.475 5H92.159L5 155.963l87.158 150.962 174.317-.001 87.158-150.962z" fill="#f5f5f5" fill-rule="nonzero" stroke="#3c3c3c" stroke-width="10"/><path d="M203.673 188.285c0 1.044-.056 1.93-.168 2.657-.112.726-.271 1.314-.475 1.761-.205.448-.439.765-.699.951a1.498 1.498 0 0 1-.895.279h-44.851c-.335 0-.634-.092-.894-.279-.262-.186-.495-.503-.7-.951-.205-.447-.363-1.035-.475-1.761-.112-.727-.168-1.613-.168-2.657 0-1.081.047-1.985.14-2.712.093-.727.243-1.314.448-1.762.204-.447.447-.763.727-.95.279-.187.587-.28.922-.28h5.928v-19.909h-5.928a1.62 1.62 0 0 1-.894-.251c-.262-.168-.495-.467-.7-.895-.205-.428-.363-.997-.475-1.706-.112-.707-.168-1.602-.168-2.684 0-1.043.047-1.92.14-2.629.093-.707.243-1.277.448-1.705.204-.428.447-.736.727-.923a1.63 1.63 0 0 1 .922-.28h5.928v-5.145c0-4.548.503-8.472 1.51-11.772 1.007-3.299 2.48-6.011 4.418-8.136 1.938-2.125 4.343-3.682 7.214-4.67 2.871-.987 6.17-1.482 9.899-1.482 1.64 0 3.215.121 4.725.364 1.51.243 2.899.578 4.166 1.006 1.267.429 2.414.932 3.44 1.51 1.025.579 1.77 1.11 2.237 1.594.466.484.801.886 1.007 1.202.204.317.363.709.475 1.174.111.467.195 1.035.251 1.707.056.67.084 1.491.084 2.46 0 1.044-.047 1.921-.14 2.628-.093.709-.232 1.278-.419 1.706-.187.429-.411.736-.671.923-.261.187-.541.28-.839.28-.523 0-1.11-.261-1.761-.784-.653-.522-1.474-1.09-2.461-1.705-.988-.615-2.153-1.183-3.496-1.706-1.341-.522-2.945-.783-4.809-.783-1.865 0-3.448.308-4.753.923a7.949 7.949 0 0 0-3.188 2.684c-.82 1.175-1.417 2.629-1.79 4.362-.372 1.734-.559 3.719-.559 5.956v5.704h15.044c.335 0 .643.094.922.28.28.187.512.495.699.923.187.428.336.998.448 1.705.111.709.168 1.586.168 2.629 0 1.082-.057 1.977-.168 2.684-.112.709-.271 1.278-.475 1.706-.206.428-.439.727-.7.895a1.62 1.62 0 0 1-.894.251h-15.044v19.909h24.383c.336 0 .643.093.923.28.279.187.512.503.699.95.186.448.335 1.035.447 1.762.112.727.168 1.631.168 2.712" fill="#3c3c3c" fill-rule="nonzero"/><path d="M178.709 222.088c-35.856 0-64.924-29.068-64.924-64.924 0-35.857 29.068-64.925 64.924-64.925 35.856 0 64.924 29.068 64.924 64.925 0 35.856-29.068 64.924-64.924 64.924m0-177.607c-62.233 0-112.683 50.45-112.683 112.683 0 62.233 50.45 112.682 112.683 112.682 62.233 0 112.683-50.449 112.683-112.682 0-62.233-50.45-112.683-112.683-112.683" fill="#087e8b" fill-rule="nonzero"/><path d="M282.645 112.736a108.967 108.967 0 0 0-25.184-36.167l-33.371 34.136a68.732 68.732 0 0 1 4.735 5.18c.408.495 1.14 1.384 2.024 2.57 0 0 1.059 1.42 2.068 2.955 4.375 6.653 7.042 14.171 7.042 14.171a64.301 64.301 0 0 1 1.462 4.662c1.07 3.945 2.238 9.84 2.179 17.375l47.792-.454c.142-9.365-.815-25.884-8.747-44.428" fill="#ff5a5f" fill-rule="nonzero"/><path d="M243.6 157.618a57.027 57.027 0 0 1-.91 10.686l46.491 11.337a116.198 116.198 0 0 0 2.214-22.651l-47.795.628z" fill="#4c4c4c" fill-rule="nonzero"/><path d="M212.064 49.23a106.357 106.357 0 0 0-33.061-4.753l-.294 47.762a68.24 68.24 0 0 1 9.776.777c4.348.661 7.559 1.58 8.505 1.858a61.373 61.373 0 0 1 11.215 4.544l27.172-39.668c-9.003-5.451-17.212-8.622-23.313-10.52" fill="#f5f5f5" fill-rule="nonzero"/><path d="M212.064 49.23a106.357 106.357 0 0 0-33.061-4.753l-.294 47.762a68.24 68.24 0 0 1 9.776.777c4.348.661 7.559 1.58 8.505 1.858a61.373 61.373 0 0 1 11.215 4.544l27.172-39.668c-9.003-5.451-17.212-8.622-23.313-10.52z" fill="none" stroke="#087e8b" stroke-width=".1" stroke-linejoin="miter" stroke-miterlimit="10"/><path d="M247.226 67.625c-1.705-1.299-3.208-2.444-5.259-3.833a87.639 87.639 0 0 0-6.59-4.042l-27.172 39.668c1.25.646 5.815 3.044 9.647 5.946 2.009 1.521 4.1 3.371 4.1 3.371.87.771 1.594 1.449 2.138 1.97l33.371-34.136a76.208 76.208 0 0 0-4.935-4.704c-1.848-1.61-3.308-2.722-5.3-4.24" fill="#939fab" fill-rule="nonzero"/></svg>