<?xml version="1.0" encoding="UTF-8" standalone="no"?><!DOCTYPE svg PUBLIC "-//W3C//DTD SVG 1.1//EN" "http://www.w3.org/Graphics/SVG/1.1/DTD/svg11.dtd"><svg width="100%" height="100%" viewBox="0 0 359 312" version="1.1" xmlns="http://www.w3.org/2000/svg" xmlns:xlink="http://www.w3.org/1999/xlink" xml:space="preserve" style="fill-rule:evenodd;clip-rule:evenodd;stroke-linejoin:round;stroke-miterlimit:1.41421;"><path d="M353.633,155.962l-87.158,-150.962l-174.316,0l-87.159,150.963l87.158,150.962l174.317,-0.001l87.158,-150.962Z" style="fill:#f5f5f5;fill-rule:nonzero;stroke:#3c3c3c;stroke-width:10px;"/><path d="M203.673,188.285c0,1.044 -0.056,1.93 -0.168,2.657c-0.112,0.726 -0.271,1.314 -0.475,1.761c-0.205,0.448 -0.439,0.765 -0.699,0.951c-0.262,0.187 -0.559,0.279 -0.895,0.279l-44.851,0c-0.335,0 -0.634,-0.092 -0.894,-0.279c-0.262,-0.186 -0.495,-0.503 -0.7,-0.951c-0.205,-0.447 -0.363,-1.035 -0.475,-1.761c-0.112,-0.727 -0.168,-1.613 -0.168,-2.657c0,-1.081 0.047,-1.985 0.14,-2.712c0.093,-0.727 0.243,-1.314 0.448,-1.762c0.204,-0.447 0.447,-0.763 0.727,-0.95c0.279,-0.187 0.587,-0.28 0.922,-0.28l5.928,0l0,-19.909l-5.928,0c-0.335,0 -0.634,-0.084 -0.894,-0.251c-0.262,-0.168 -0.495,-0.467 -0.7,-0.895c-0.205,-0.428 -0.363,-0.997 -0.475,-1.706c-0.112,-0.707 -0.168,-1.602 -0.168,-2.684c0,-1.043 0.047,-1.92 0.14,-2.629c0.093,-0.707 0.243,-1.277 0.448,-1.705c0.204,-0.428 0.447,-0.736 0.727,-0.923c0.279,-0.186 0.587,-0.28 0.922,-0.28l5.928,0l0,-5.145c0,-4.548 0.503,-8.472 1.51,-11.772c1.007,-3.299 2.48,-6.011 4.418,-8.136c1.938,-2.125 4.343,-3.682 7.214,-4.67c2.871,-0.987 6.17,-1.482 9.899,-1.482c1.64,0 3.215,0.121 4.725,0.364c1.51,0.243 2.899,0.578 4.166,1.006c1.267,0.429 2.414,0.932 3.44,1.51c1.025,0.579 1.77,1.11 2.237,1.594c0.466,0.484 0.801,0.886 1.007,1.202c0.204,0.317 0.363,0.709 0.475,1.174c0.111,0.467 0.195,1.035 0.251,1.707c0.056,0.67 0.084,1.491 0.084,2.46c0,1.044 -0.047,1.921 -0.14,2.628c-0.093,0.709 -0.232,1.278 -0.419,1.706c-0.187,0.429 -0.411,0.736 -0.671,0.923c-0.261,0.187 -0.541,0.28 -0.839,0.28c-0.523,0 -1.11,-0.261 -1.761,-0.784c-0.653,-0.522 -1.474,-1.09 -2.461,-1.705c-0.988,-0.615 -2.153,-1.183 -3.496,-1.706c-1.341,-0.522 -2.945,-0.783 -4.809,-0.783c-1.865,0 -3.448,0.308 -4.753,0.923c-1.306,0.615 -2.369,1.51 -3.188,2.684c-0.82,1.175 -1.417,2.629 -1.79,4.362c-0.372,1.734 -0.559,3.719 -0.559,5.956l0,5.704l15.044,0c0.335,0 0.643,0.094 0.922,0.28c0.28,0.187 0.512,0.495 0.699,0.923c0.187,0.428 0.336,0.998 0.448,1.705c0.111,0.709 0.168,1.586 0.168,2.629c0,1.082 -0.057,1.977 -0.168,2.684c-0.112,0.709 -0.271,1.278 -0.475,1.706c-0.206,0.428 -0.439,0.727 -0.7,0.895c-0.26,0.167 -0.559,0.251 -0.894,0.251l-15.044,0l0,19.909l24.383,0c0.336,0 0.643,0.093 0.923,0.28c0.279,0.187 0.512,0.503 0.699,0.95c0.186,0.448 0.335,1.035 0.447,1.762c0.112,0.727 0.168,1.631 0.168,2.712" style="fill:#3c3c3c;fill-rule:nonzero;"/><path d="M178.709,222.088c-35.856,0 -64.924,-29.068 -64.924,-64.924c0,-35.857 29.068,-64.925 64.924,-64.925c35.856,0 64.924,29.068 64.924,64.925c0,35.856 -29.068,64.924 -64.924,64.924m0,-177.607c-62.233,0 -112.683,50.45 -112.683,112.683c0,62.233 50.45,112.682 112.683,112.682c62.233,0 112.683,-50.449 112.683,-112.682c0,-62.233 -50.45,-112.683 -112.683,-112.683" style="fill:#087e8b;fill-rule:nonzero;"/><path d="M282.645,112.736c-7.671,-17.935 -18.454,-29.787 -25.184,-36.167c-11.124,11.379 -22.248,22.757 -33.371,34.136c1.471,1.455 2.618,2.713 3.451,3.667c0.233,0.266 0.704,0.809 1.284,1.513c0.408,0.495 1.14,1.384 2.024,2.57c0,0 1.059,1.42 2.068,2.955c4.375,6.653 7.042,14.171 7.042,14.171c0.768,2.163 1.251,3.883 1.462,4.662c1.07,3.945 2.238,9.84 2.179,17.375l47.792,-0.454c0.142,-9.365 -0.815,-25.884 -8.747,-44.428" style="fill:#ff5a5f;fill-rule:nonzero;"/><path d="M243.6,157.618c0.013,1.454 -0.028,3.015 -0.149,4.67c-0.159,2.185 -0.432,4.198 -0.761,6.016l46.491,11.337c0.698,-3.525 1.302,-7.437 1.702,-11.691c0.37,-3.929 0.513,-7.6 0.512,-10.96l-47.795,0.628Z" style="fill:#4c4c4c;fill-rule:nonzero;"/><path d="M212.064,49.23c-3.747,-1.166 -9.532,-2.732 -16.755,-3.742c-6.186,-0.864 -11.707,-1.08 -16.306,-1.011c-0.098,15.92 -0.196,31.841 -0.294,47.762c2.652,0.019 5.979,0.199 9.776,0.777c4.348,0.661 7.559,1.58 8.505,1.858c2.99,0.878 6.882,2.272 11.215,4.544c9.057,-13.223 18.115,-26.445 27.172,-39.668c-9.003,-5.451 -17.212,-8.622 -23.313,-10.52" style="fill:#f5f5f5;fill-rule:nonzero;"/><path d="M212.064,49.23c-3.747,-1.166 -9.532,-2.732 -16.755,-3.742c-6.186,-0.864 -11.707,-1.08 -16.306,-1.011c-0.098,15.92 -0.196,31.841 -0.294,47.762c2.652,0.019 5.979,0.199 9.776,0.777c4.348,0.661 7.559,1.58 8.505,1.858c2.99,0.878 6.882,2.272 11.215,4.544c9.057,-13.223 18.115,-26.445 27.172,-39.668c-9.003,-5.451 -17.212,-8.622 -23.313,-10.52Z" style="fill:none;stroke:#087e8b;stroke-width:0.1px;stroke-linejoin:miter;stroke-miterlimit:10;"/><path d="M247.226,67.625c-1.705,-1.299 -3.208,-2.444 -5.259,-3.833c-1.653,-1.117 -3.868,-2.533 -6.59,-4.042c-9.057,13.223 -18.115,26.445 -27.172,39.668c1.25,0.646 5.815,3.044 9.647,5.946c2.009,1.521 4.1,3.371 4.1,3.371c0.87,0.771 1.594,1.449 2.138,1.97c11.123,-11.379 22.247,-22.757 33.371,-34.136c-1.915,-1.995 -3.627,-3.565 -4.935,-4.704c-1.848,-1.61 -3.308,-2.722 -5.3,-4.24" style="fill:#939fab;fill-rule:nonzero;"/></svg>