<svg viewBox="0 0 359 312" xmlns="http://www.w3.org/2000/svg" fill-rule="evenodd" clip-rule="evenodd" stroke-linejoin="round" stroke-miterlimit="1.414"><path d="M353.632 155.962L266.474 5H92.158L5 155.962l87.158 150.962h174.316l87.158-150.962z" fill="#f5f5f5" fill-rule="nonzero" stroke="#3c3c3c" stroke-width="10"/><path d="M135.648 101.197c0 1.31-.066 2.409-.196 3.299-.132.891-.315 1.61-.55 2.16-.236.55-.511.93-.825 1.139-.315.21-.656.314-1.021.314-.367 0-.786-.079-1.257-.235l-1.649-.55a17.86 17.86 0 0 0-2.121-.55 12.815 12.815 0 0 0-2.514-.236c-1.152 0-2.199.197-3.141.589-.943.393-1.768 1.049-2.475 1.964-.706.917-1.256 2.108-1.649 3.574-.393 1.467-.589 3.247-.589 5.341v82.708c0 4.293-.42 8.077-1.257 11.35-.838 3.272-2.173 6.034-4.006 8.286-1.833 2.251-4.241 3.953-7.226 5.106-2.985 1.151-6.572 1.728-10.76 1.728a46.67 46.67 0 0 1-4.242-.196 45.211 45.211 0 0 1-3.849-.511c-1.152-.21-2.148-.459-2.985-.746-.837-.288-1.492-.656-1.963-1.1-.471-.445-.813-1.257-1.021-2.434-.21-1.179-.314-2.659-.314-4.438 0-2.567.235-4.413.707-5.538.47-1.127 1.177-1.689 2.121-1.689.313 0 .693.079 1.138.236.445.157.968.326 1.571.511.601.182 1.283.353 2.043.51.758.157 1.583.236 2.473.236 2.461 0 4.385-.917 5.774-2.749 1.387-1.834 2.081-4.713 2.081-8.641v-82.786c0-4.242.419-8.012 1.257-11.311.837-3.299 2.199-6.073 4.084-8.325 1.885-2.251 4.345-3.953 7.383-5.106 3.037-1.151 6.728-1.728 11.076-1.728 1.464 0 2.879.079 4.241.235 1.361.158 2.578.342 3.652.55 1.072.21 2.003.485 2.788.825.785.341 1.401.721 1.846 1.139.444.42.786 1.178 1.021 2.278.236 1.1.354 2.697.354 4.791" fill="#087e8b" fill-rule="nonzero"/><path d="M178.064 223.037c0 .779-.05 1.438-.148 1.979-.099.54-.248.967-.447 1.281-.198.314-.429.541-.694.679a1.901 1.901 0 0 1-.892.207h-41.685c-1.389 0-2.463-.308-3.223-.923-.76-.616-1.14-1.515-1.14-2.695v-1.546c0-.93.034-1.702.1-2.318a5.373 5.373 0 0 1 .421-1.64c.215-.477.52-.936.917-1.375.396-.44.925-.949 1.586-1.526l22.751-20.883-21.958-19.788c-.661-.553-1.182-1.037-1.561-1.452a4.916 4.916 0 0 1-.893-1.357c-.215-.49-.355-1.061-.42-1.715-.068-.653-.1-1.494-.1-2.525v-1.169c0-1.055.372-1.884 1.115-2.487.744-.603 1.776-.905 3.098-.905h39.753c.33 0 .62.07.867.207.248.139.454.365.619.679.166.314.29.729.373 1.244.082.515.124 1.162.124 1.941 0 .754-.042 1.395-.124 1.922-.083.528-.207.949-.373 1.263-.165.315-.371.547-.619.697a1.631 1.631 0 0 1-.867.226h-29.839l23.742 21.146c.662.604.992 1.194.992 1.772 0 .578-.265 1.13-.793 1.658l-25.23 23.03h32.367c.33 0 .627.082.892.246.265.163.496.408.694.735.199.326.348.772.447 1.338.098.565.148 1.249.148 2.054m94.583-50.918v35.958a36.095 36.095 0 0 0 2.059 12.37 35.632 35.632 0 0 0 3.213 6.718l-14.592.018c-1.051-1.99-1.97-7.695-1.97-17.912v-37.152h-20.874c-.524 16.851-4.332 44.449-8.927 55.064l-21.094-.409a64.417 64.417 0 0 0 16.105-25.481c4.287-12.632 3.62-23.541 2.888-29.174-.5-.129-3.761-.909-6.744 1.186-2.297 1.614-3.014 3.94-3.199 4.624l-7.066-2.124c.629-1.606 2.868-6.734 8.546-10.112 5.278-3.139 10.378-2.894 12.139-2.729h49.625l-1.313 9.155h-8.796z" fill="#3c3c3c" fill-rule="nonzero"/><path d="M246.506 91.633c-.151-.192-.429-.208-.524-.213-.74-.042-24.565-.034-25.807-.034v.001a74.035 74.035 0 0 0-.968-.007c-1.742 0-3.146.05-4.215.148-1.068.099-1.909.267-2.522.504-.613.238-1.049.555-1.306.95-.258.396-.445.891-.563 1.484l-13.712 59.475h-.178l-9.794-38.522c-.277-1.147-.85-1.998-1.721-2.553-.871-.553-1.999-.831-3.383-.831h-13.295c-.397 0-.763.11-1.099.327-.337.218-.614.564-.831 1.039-.218.475-.395 1.098-.534 1.869-.138.772-.208 1.732-.208 2.879 0 1.187.059 2.167.179 2.938.118.772.286 1.405.503 1.9.218.495.476.841.773 1.038.296.199.642.297 1.038.297h5.401l12.406 42.024c.198.712.464 1.286.801 1.721.336.436.89.762 1.663.98.771.216 1.79.365 3.056.444 1.266.08 2.947.12 5.045.12 2.019 0 3.63-.03 4.838-.09 1.206-.059 2.156-.207 2.849-.445.692-.237 1.196-.583 1.513-1.039.317-.454.574-1.058.772-1.81l17.134-63.552h19.953l.057-.216c1.376-5.16 1.887-7.061 2.76-10.357l.022-.081a.572.572 0 0 0-.103-.388" fill="#ff5a5f" fill-rule="nonzero"/></svg>