<?xml version="1.0" encoding="UTF-8" standalone="no"?><!DOCTYPE svg PUBLIC "-//W3C//DTD SVG 1.1//EN" "http://www.w3.org/Graphics/SVG/1.1/DTD/svg11.dtd"><svg width="100%" height="100%" viewBox="0 0 359 312" version="1.1" xmlns="http://www.w3.org/2000/svg" xmlns:xlink="http://www.w3.org/1999/xlink" xml:space="preserve" style="fill-rule:evenodd;clip-rule:evenodd;stroke-linejoin:round;stroke-miterlimit:1.41421;"><path d="M353.632,155.962l-87.158,-150.962l-174.316,0l-87.158,150.962l87.158,150.962l174.316,0l87.158,-150.962Z" style="fill:#f5f5f5;fill-rule:nonzero;stroke:#3c3c3c;stroke-width:10px;"/><path d="M135.648,101.197c0,1.31 -0.066,2.409 -0.196,3.299c-0.132,0.891 -0.315,1.61 -0.55,2.16c-0.236,0.55 -0.511,0.93 -0.825,1.139c-0.315,0.21 -0.656,0.314 -1.021,0.314c-0.367,0 -0.786,-0.079 -1.257,-0.235c-0.471,-0.157 -1.021,-0.341 -1.649,-0.55c-0.629,-0.209 -1.336,-0.393 -2.121,-0.55c-0.785,-0.157 -1.624,-0.236 -2.514,-0.236c-1.152,0 -2.199,0.197 -3.141,0.589c-0.943,0.393 -1.768,1.049 -2.475,1.964c-0.706,0.917 -1.256,2.108 -1.649,3.574c-0.393,1.467 -0.589,3.247 -0.589,5.341l0,82.708c0,4.293 -0.42,8.077 -1.257,11.35c-0.838,3.272 -2.173,6.034 -4.006,8.286c-1.833,2.251 -4.241,3.953 -7.226,5.106c-2.985,1.151 -6.572,1.728 -10.76,1.728c-1.414,0 -2.828,-0.067 -4.242,-0.196c-1.414,-0.132 -2.698,-0.302 -3.849,-0.511c-1.152,-0.21 -2.148,-0.459 -2.985,-0.746c-0.837,-0.288 -1.492,-0.656 -1.963,-1.1c-0.471,-0.445 -0.813,-1.257 -1.021,-2.434c-0.21,-1.179 -0.314,-2.659 -0.314,-4.438c0,-2.567 0.235,-4.413 0.707,-5.538c0.47,-1.127 1.177,-1.689 2.121,-1.689c0.313,0 0.693,0.079 1.138,0.236c0.445,0.157 0.968,0.326 1.571,0.511c0.601,0.182 1.283,0.353 2.043,0.51c0.758,0.157 1.583,0.236 2.473,0.236c2.461,0 4.385,-0.917 5.774,-2.749c1.387,-1.834 2.081,-4.713 2.081,-8.641l0,-82.786c0,-4.242 0.419,-8.012 1.257,-11.311c0.837,-3.299 2.199,-6.073 4.084,-8.325c1.885,-2.251 4.345,-3.953 7.383,-5.106c3.037,-1.151 6.728,-1.728 11.076,-1.728c1.464,0 2.879,0.079 4.241,0.235c1.361,0.158 2.578,0.342 3.652,0.55c1.072,0.21 2.003,0.485 2.788,0.825c0.785,0.341 1.401,0.721 1.846,1.139c0.444,0.42 0.786,1.178 1.021,2.278c0.236,1.1 0.354,2.697 0.354,4.791" style="fill:#087e8b;fill-rule:nonzero;"/><path d="M178.064,223.037c0,0.779 -0.05,1.438 -0.148,1.979c-0.099,0.54 -0.248,0.967 -0.447,1.281c-0.198,0.314 -0.429,0.541 -0.694,0.679c-0.265,0.138 -0.562,0.207 -0.892,0.207l-41.685,0c-1.389,0 -2.463,-0.308 -3.223,-0.923c-0.76,-0.616 -1.14,-1.515 -1.14,-2.695l0,-1.546c0,-0.93 0.034,-1.702 0.1,-2.318c0.066,-0.616 0.206,-1.162 0.421,-1.64c0.215,-0.477 0.52,-0.936 0.917,-1.375c0.396,-0.44 0.925,-0.949 1.586,-1.526l22.751,-20.883l-21.958,-19.788c-0.661,-0.553 -1.182,-1.037 -1.561,-1.452c-0.381,-0.414 -0.677,-0.866 -0.893,-1.357c-0.215,-0.49 -0.355,-1.061 -0.42,-1.715c-0.068,-0.653 -0.1,-1.494 -0.1,-2.525l0,-1.169c0,-1.055 0.372,-1.884 1.115,-2.487c0.744,-0.603 1.776,-0.905 3.098,-0.905l39.753,0c0.33,0 0.62,0.07 0.867,0.207c0.248,0.139 0.454,0.365 0.619,0.679c0.166,0.314 0.29,0.729 0.373,1.244c0.082,0.515 0.124,1.162 0.124,1.941c0,0.754 -0.042,1.395 -0.124,1.922c-0.083,0.528 -0.207,0.949 -0.373,1.263c-0.165,0.315 -0.371,0.547 -0.619,0.697c-0.247,0.151 -0.537,0.226 -0.867,0.226l-29.839,0l23.742,21.146c0.662,0.604 0.992,1.194 0.992,1.772c0,0.578 -0.265,1.13 -0.793,1.658l-25.23,23.03l32.367,0c0.33,0 0.627,0.082 0.892,0.246c0.265,0.163 0.496,0.408 0.694,0.735c0.199,0.326 0.348,0.772 0.447,1.338c0.098,0.565 0.148,1.249 0.148,2.054" style="fill:#3c3c3c;fill-rule:nonzero;"/><path d="M272.647,172.119l0,35.958c-0.025,3.06 0.316,7.459 2.059,12.37c0.956,2.692 2.118,4.934 3.213,6.718c-4.864,0.006 -9.728,0.012 -14.592,0.018c-1.051,-1.99 -1.97,-7.695 -1.97,-17.912l0,-37.152l-20.874,0c-0.524,16.851 -4.332,44.449 -8.927,55.064c-7.031,-0.136 -14.062,-0.273 -21.094,-0.409c4.082,-3.959 11.65,-12.352 16.105,-25.481c4.287,-12.632 3.62,-23.541 2.888,-29.174c-0.5,-0.129 -3.761,-0.909 -6.744,1.186c-2.297,1.614 -3.014,3.94 -3.199,4.624l-7.066,-2.124c0.629,-1.606 2.868,-6.734 8.546,-10.112c5.278,-3.139 10.378,-2.894 12.139,-2.729l49.625,0l-1.313,9.155l-8.796,0Z" style="fill:#3c3c3c;fill-rule:nonzero;"/><path d="M246.506,91.633c-0.151,-0.192 -0.429,-0.208 -0.524,-0.213c-0.74,-0.042 -24.565,-0.034 -25.807,-0.034l0,0.001c-0.311,-0.004 -0.627,-0.007 -0.968,-0.007c-1.742,0 -3.146,0.05 -4.215,0.148c-1.068,0.099 -1.909,0.267 -2.522,0.504c-0.613,0.238 -1.049,0.555 -1.306,0.95c-0.258,0.396 -0.445,0.891 -0.563,1.484l-13.712,59.475l-0.178,0l-9.794,-38.522c-0.277,-1.147 -0.85,-1.998 -1.721,-2.553c-0.871,-0.553 -1.999,-0.831 -3.383,-0.831l-13.295,0c-0.397,0 -0.763,0.11 -1.099,0.327c-0.337,0.218 -0.614,0.564 -0.831,1.039c-0.218,0.475 -0.395,1.098 -0.534,1.869c-0.138,0.772 -0.208,1.732 -0.208,2.879c0,1.187 0.059,2.167 0.179,2.938c0.118,0.772 0.286,1.405 0.503,1.9c0.218,0.495 0.476,0.841 0.773,1.038c0.296,0.199 0.642,0.297 1.038,0.297l5.401,0l12.406,42.024c0.198,0.712 0.464,1.286 0.801,1.721c0.336,0.436 0.89,0.762 1.663,0.98c0.771,0.216 1.79,0.365 3.056,0.444c1.266,0.08 2.947,0.12 5.045,0.12c2.019,0 3.63,-0.03 4.838,-0.09c1.206,-0.059 2.156,-0.207 2.849,-0.445c0.692,-0.237 1.196,-0.583 1.513,-1.039c0.317,-0.454 0.574,-1.058 0.772,-1.81l17.134,-63.552l19.953,0c0.001,-0.002 0.057,-0.214 0.057,-0.216c1.376,-5.16 1.887,-7.061 2.76,-10.357c0,-0.001 0.022,-0.079 0.022,-0.081c0.006,-0.13 -0.013,-0.274 -0.103,-0.388" style="fill:#ff5a5f;fill-rule:nonzero;"/></svg>