<svg viewBox="0 0 359 312" xmlns="http://www.w3.org/2000/svg" fill-rule="evenodd" clip-rule="evenodd" stroke-linejoin="round" stroke-miterlimit="1.414"><path d="M353.633 155.962L266.475 5H92.159L5 155.963l87.158 150.962 174.317-.001 87.158-150.962z" fill="#f5f5f5" fill-rule="nonzero" stroke="#3c3c3c" stroke-width="10"/><path d="M168.704 225.804c-7.216 27.992-74.916 27.992-82.131 0-4.712-18.276 12.926-61.81 41.065-61.81 28.14 0 45.777 43.534 41.066 61.81" fill="#ff5a5f" fill-rule="nonzero"/><path d="M137.648 134.833a4.08 4.08 0 1 1 1.11 8.086 4.081 4.081 0 0 1-1.11-8.086m1.539 23.804c-3.24-2.108-5.069-5.907-4.802-9.892l.001.001c2.894 2.834 8.701 6.107 13.293 4.038.825-.372 2.413-1.284 3.772-3.594a24.574 24.574 0 0 0-.164-5.114c-1.84-13.398-14.193-22.768-27.591-20.928-13.399 1.84-22.769 14.193-20.928 27.591 1.839 13.398 14.193 22.768 27.59 20.928 7.704-1.058 14.07-5.594 17.745-11.803-.912.265-5.044 1.292-8.916-1.227" fill="#ff5a5f" fill-rule="nonzero"/><path d="M148.169 93.849c-.774.87-2.181 1.307-4.222 1.307-1.975 0-3.341-.427-4.099-1.279-.758-.853-1.136-2.558-1.136-5.116 0-2.632.387-4.383 1.161-5.254.773-.871 2.18-1.307 4.222-1.307 1.975 0 3.341.426 4.098 1.279.758.853 1.136 2.558 1.136 5.116 0 2.632-.387 4.383-1.16 5.254m-25.53 0c-.773.87-2.181 1.307-4.222 1.307-1.975 0-3.341-.427-4.099-1.279-.757-.853-1.135-2.558-1.135-5.116 0-2.632.387-4.383 1.16-5.254.773-.871 2.18-1.307 4.222-1.307 1.976 0 3.341.426 4.099 1.279.757.853 1.136 2.558 1.136 5.116 0 2.632-.388 4.383-1.161 5.254m-25.53 0c-.773.87-2.18 1.307-4.221 1.307-1.975 0-3.342-.427-4.099-1.279-.758-.853-1.136-2.558-1.136-5.116 0-2.632.387-4.383 1.161-5.254.772-.871 2.18-1.307 4.222-1.307 1.975 0 3.341.426 4.098 1.279.758.853 1.136 2.558 1.136 5.116 0 2.632-.388 4.383-1.161 5.254m54.165-22.996H85.708c-4.948 0-8.997 4.559-8.997 10.131v15.388c0 5.572 4.049 10.13 8.997 10.13h40.465l15.95 16.418v-16.347l-1.808-.071h10.959c4.949 0 8.997-4.558 8.997-10.13V80.984c0-5.572-4.048-10.131-8.997-10.131m34.376 154.951c7.216 27.992 74.916 27.992 82.131 0 4.712-18.276-12.925-61.81-41.065-61.81-28.14 0-45.777 43.534-41.066 61.81" fill="#087e8b" fill-rule="nonzero"/><path d="M220.34 139.303a4.082 4.082 0 1 1-8.067-1.257 4.082 4.082 0 0 1 8.067 1.257m-14.311 20.177c3.563 6.275 9.846 10.926 17.529 12.122 13.363 2.082 25.883-7.063 27.965-20.426 2.082-13.363-7.064-25.883-20.427-27.965-13.362-2.081-25.883 7.064-27.964 20.426a24.511 24.511 0 0 0-.257 5.111c1.317 2.334 2.888 3.275 3.707 3.661 4.553 2.152 10.419-1.016 13.363-3.797l.001-.001c.196 3.99-1.702 7.754-4.98 9.804-3.916 2.449-8.03 1.347-8.937 1.065" fill="#087e8b" fill-rule="nonzero"/><path d="M205.434 86.594c0-2.558.393-4.263 1.178-5.116.786-.852 2.203-1.279 4.252-1.279 2.118 0 3.578.437 4.38 1.307.802.871 1.203 2.623 1.203 5.255 0 2.558-.392 4.263-1.178 5.115-.785.853-2.203 1.279-4.252 1.279-2.117 0-3.577-.436-4.379-1.307-.802-.87-1.204-2.622-1.204-5.254m26.483 0c0-2.558.393-4.263 1.178-5.116.786-.852 2.203-1.279 4.252-1.279 2.118 0 3.578.437 4.379 1.307.803.871 1.205 2.623 1.205 5.255 0 2.558-.393 4.263-1.179 5.115-.785.853-2.202 1.279-4.252 1.279-2.117 0-3.577-.436-4.379-1.307-.802-.87-1.204-2.622-1.204-5.254m26.483 0c0-2.558.393-4.263 1.179-5.116.786-.852 2.202-1.279 4.251-1.279 2.118 0 3.578.437 4.38 1.307.802.871 1.203 2.623 1.203 5.255 0 2.558-.392 4.263-1.178 5.115-.785.853-2.202 1.279-4.251 1.279-2.117 0-3.577-.436-4.38-1.307-.802-.87-1.204-2.622-1.204-5.254m-64.317-7.611v15.388c0 5.572 4.2 10.131 9.333 10.131h11.369l-1.875.07v16.347l16.545-16.417h41.977c5.132 0 9.332-4.559 9.332-10.131V78.983c0-5.572-4.2-10.13-9.332-10.13h-68.016c-5.133 0-9.333 4.558-9.333 10.13" fill="#ff5a5f" fill-rule="nonzero"/></svg>