<?xml version="1.0" encoding="UTF-8" standalone="no"?><!DOCTYPE svg PUBLIC "-//W3C//DTD SVG 1.1//EN" "http://www.w3.org/Graphics/SVG/1.1/DTD/svg11.dtd"><svg width="100%" height="100%" viewBox="0 0 359 312" version="1.1" xmlns="http://www.w3.org/2000/svg" xmlns:xlink="http://www.w3.org/1999/xlink" xml:space="preserve" style="fill-rule:evenodd;clip-rule:evenodd;stroke-linejoin:round;stroke-miterlimit:1.41421;"><path d="M353.633,155.962l-87.158,-150.962l-174.316,0l-87.159,150.963l87.158,150.962l174.317,-0.001l87.158,-150.962Z" style="fill:#f5f5f5;fill-rule:nonzero;stroke:#3c3c3c;stroke-width:10px;"/><path d="M168.704,225.804c-7.216,27.992 -74.916,27.992 -82.131,0c-4.712,-18.276 12.926,-61.81 41.065,-61.81c28.14,0 45.777,43.534 41.066,61.81" style="fill:#ff5a5f;fill-rule:nonzero;"/><path d="M137.648,134.833c2.233,-0.307 4.292,1.255 4.598,3.488c0.307,2.233 -1.255,4.292 -3.488,4.598c-2.233,0.307 -4.292,-1.254 -4.598,-3.487c-0.307,-2.234 1.255,-4.292 3.488,-4.599m1.539,23.804c-3.24,-2.108 -5.069,-5.907 -4.802,-9.892l0.001,0.001c2.894,2.834 8.701,6.107 13.293,4.038c0.825,-0.372 2.413,-1.284 3.772,-3.594c0.121,-1.674 0.073,-3.385 -0.164,-5.114c-1.84,-13.398 -14.193,-22.768 -27.591,-20.928c-13.399,1.84 -22.769,14.193 -20.928,27.591c1.839,13.398 14.193,22.768 27.59,20.928c7.704,-1.058 14.07,-5.594 17.745,-11.803c-0.912,0.265 -5.044,1.292 -8.916,-1.227" style="fill:#ff5a5f;fill-rule:nonzero;"/><path d="M148.169,93.849c-0.774,0.87 -2.181,1.307 -4.222,1.307c-1.975,0 -3.341,-0.427 -4.099,-1.279c-0.758,-0.853 -1.136,-2.558 -1.136,-5.116c0,-2.632 0.387,-4.383 1.161,-5.254c0.773,-0.871 2.18,-1.307 4.222,-1.307c1.975,0 3.341,0.426 4.098,1.279c0.758,0.853 1.136,2.558 1.136,5.116c0,2.632 -0.387,4.383 -1.16,5.254m-25.53,0c-0.773,0.87 -2.181,1.307 -4.222,1.307c-1.975,0 -3.341,-0.427 -4.099,-1.279c-0.757,-0.853 -1.135,-2.558 -1.135,-5.116c0,-2.632 0.387,-4.383 1.16,-5.254c0.773,-0.871 2.18,-1.307 4.222,-1.307c1.976,0 3.341,0.426 4.099,1.279c0.757,0.853 1.136,2.558 1.136,5.116c0,2.632 -0.388,4.383 -1.161,5.254m-25.53,0c-0.773,0.87 -2.18,1.307 -4.221,1.307c-1.975,0 -3.342,-0.427 -4.099,-1.279c-0.758,-0.853 -1.136,-2.558 -1.136,-5.116c0,-2.632 0.387,-4.383 1.161,-5.254c0.772,-0.871 2.18,-1.307 4.222,-1.307c1.975,0 3.341,0.426 4.098,1.279c0.758,0.853 1.136,2.558 1.136,5.116c0,2.632 -0.388,4.383 -1.161,5.254m54.165,-22.996l-65.566,0c-4.948,0 -8.997,4.559 -8.997,10.131l0,15.388c0,5.572 4.049,10.13 8.997,10.13l40.465,0l15.95,16.418l0,-16.347l-1.808,-0.071l10.959,0c4.949,0 8.997,-4.558 8.997,-10.13l0,-15.388c0,-5.572 -4.048,-10.131 -8.997,-10.131" style="fill:#087e8b;fill-rule:nonzero;"/><path d="M185.65,225.804c7.216,27.992 74.916,27.992 82.131,0c4.712,-18.276 -12.925,-61.81 -41.065,-61.81c-28.14,0 -45.777,43.534 -41.066,61.81" style="fill:#087e8b;fill-rule:nonzero;"/><path d="M220.34,139.303c-0.347,2.228 -2.434,3.751 -4.661,3.405c-2.227,-0.347 -3.751,-2.434 -3.404,-4.661c0.347,-2.227 2.433,-3.752 4.66,-3.405c2.228,0.348 3.752,2.434 3.405,4.661m-14.311,20.177c3.563,6.275 9.846,10.926 17.529,12.122c13.363,2.082 25.883,-7.063 27.965,-20.426c2.082,-13.363 -7.064,-25.883 -20.427,-27.965c-13.362,-2.081 -25.883,7.064 -27.964,20.426c-0.269,1.725 -0.348,3.435 -0.257,5.111c1.317,2.334 2.888,3.275 3.707,3.661c4.553,2.152 10.419,-1.016 13.363,-3.797l0.001,-0.001c0.196,3.99 -1.702,7.754 -4.98,9.804c-3.916,2.449 -8.03,1.347 -8.937,1.065" style="fill:#087e8b;fill-rule:nonzero;"/><path d="M205.434,86.594c0,-2.558 0.393,-4.263 1.178,-5.116c0.786,-0.852 2.203,-1.279 4.252,-1.279c2.118,0 3.578,0.437 4.38,1.307c0.802,0.871 1.203,2.623 1.203,5.255c0,2.558 -0.392,4.263 -1.178,5.115c-0.785,0.853 -2.203,1.279 -4.252,1.279c-2.117,0 -3.577,-0.436 -4.379,-1.307c-0.802,-0.87 -1.204,-2.622 -1.204,-5.254m26.483,0c0,-2.558 0.393,-4.263 1.178,-5.116c0.786,-0.852 2.203,-1.279 4.252,-1.279c2.118,0 3.578,0.437 4.379,1.307c0.803,0.871 1.205,2.623 1.205,5.255c0,2.558 -0.393,4.263 -1.179,5.115c-0.785,0.853 -2.202,1.279 -4.252,1.279c-2.117,0 -3.577,-0.436 -4.379,-1.307c-0.802,-0.87 -1.204,-2.622 -1.204,-5.254m26.483,0c0,-2.558 0.393,-4.263 1.179,-5.116c0.786,-0.852 2.202,-1.279 4.251,-1.279c2.118,0 3.578,0.437 4.38,1.307c0.802,0.871 1.203,2.623 1.203,5.255c0,2.558 -0.392,4.263 -1.178,5.115c-0.785,0.853 -2.202,1.279 -4.251,1.279c-2.117,0 -3.577,-0.436 -4.38,-1.307c-0.802,-0.87 -1.204,-2.622 -1.204,-5.254m-64.317,-7.611l0,15.388c0,5.572 4.2,10.131 9.333,10.131l11.369,0l-1.875,0.07l0,16.347l16.545,-16.417l41.977,0c5.132,0 9.332,-4.559 9.332,-10.131l0,-15.388c0,-5.572 -4.2,-10.13 -9.332,-10.13l-68.016,0c-5.133,0 -9.333,4.558 -9.333,10.13" style="fill:#ff5a5f;fill-rule:nonzero;"/></svg>