<svg viewBox="0 0 359 312" xmlns="http://www.w3.org/2000/svg" fill-rule="evenodd" clip-rule="evenodd" stroke-linejoin="round" stroke-miterlimit="1.414"><path d="M353.633 155.962L266.475 5H92.159L5 155.963l87.158 150.962 174.317-.001 87.158-150.962z" fill="#f5f5f5" fill-rule="nonzero" stroke="#3c3c3c" stroke-width="10"/><path d="M262.162 120.936c-1.102 1.328-2.203 1.958-3.306 2.375a7.025 7.025 0 0 1-1.652.395c-.551.072-1.102.041-1.652-.201-1.102-.452-2.204-1.582-3.306-1.793-1.102-.242-2.203.12-3.306.79-.55.32-1.101.665-1.652.9-.551.247-1.102.359-1.652.492-1.102.266-2.204.547-3.306.433-1.102-.115-2.203-.455-3.306-.975a10.313 10.313 0 0 1-1.652-.976 9.328 9.328 0 0 1-1.652-1.44v-.7a9.247 9.247 0 0 1 1.652-1.44 10.166 10.166 0 0 1 1.652-.976c1.103-.52 2.204-.861 3.306-.975 1.102-.114 2.204.167 3.306.433.55.133 1.101.245 1.652.491.551.236 1.102.581 1.652.9 1.103.671 2.204 1.033 3.306.79 1.102-.21 2.204-1.34 3.306-1.793.55-.241 1.101-.272 1.652-.2.551.06 1.102.193 1.652.394 1.103.418 2.204 1.048 3.306 2.376v.7zm0 17.827c-1.102 1.329-2.203 1.958-3.306 2.376a7.126 7.126 0 0 1-1.652.395c-.551.071-1.102.04-1.652-.202-1.102-.452-2.204-1.582-3.306-1.793-1.102-.242-2.203.12-3.306.79-.55.32-1.101.665-1.652.901-.551.246-1.102.358-1.652.491-1.102.266-2.204.547-3.306.433-1.102-.115-2.203-.455-3.306-.975-.55-.266-1.101-.57-1.652-.976a9.247 9.247 0 0 1-1.652-1.44v-.7a9.287 9.287 0 0 1 1.652-1.44c.551-.405 1.102-.71 1.652-.976 1.103-.52 2.204-.861 3.306-.974 1.102-.115 2.204.166 3.306.432.55.133 1.101.245 1.652.491.551.236 1.102.581 1.652.901 1.103.67 2.204 1.032 3.306.79 1.102-.211 2.204-1.341 3.306-1.793.55-.241 1.101-.273 1.652-.201.551.06 1.102.193 1.652.394 1.103.419 2.204 1.048 3.306 2.376v.7zm0 17.827c-1.102 1.328-2.203 1.958-3.306 2.375a7.025 7.025 0 0 1-1.652.395c-.551.072-1.102.04-1.652-.201-1.102-.452-2.204-1.582-3.306-1.793-1.102-.242-2.203.12-3.306.79-.55.32-1.101.665-1.652.9-.551.247-1.102.359-1.652.492-1.102.266-2.204.547-3.306.432-1.102-.114-2.203-.454-3.306-.974a10.313 10.313 0 0 1-1.652-.976 9.328 9.328 0 0 1-1.652-1.44v-.7a9.287 9.287 0 0 1 1.652-1.44 10.166 10.166 0 0 1 1.652-.976c1.103-.52 2.204-.861 3.306-.975 1.102-.114 2.204.167 3.306.433.55.133 1.101.245 1.652.491.551.236 1.102.581 1.652.9 1.103.671 2.204 1.033 3.306.79 1.102-.21 2.204-1.34 3.306-1.793.55-.241 1.101-.272 1.652-.2.551.06 1.102.193 1.652.394 1.103.418 2.204 1.047 3.306 2.376v.7zm0 17.827c-1.102 1.329-2.203 1.958-3.306 2.376a7.126 7.126 0 0 1-1.652.395c-.551.071-1.102.04-1.652-.202-1.102-.452-2.204-1.582-3.306-1.793-1.102-.242-2.203.12-3.306.79-.55.32-1.101.665-1.652.901-.551.246-1.102.358-1.652.491-1.102.266-2.204.547-3.306.433-1.102-.115-2.203-.455-3.306-.975-.55-.266-1.101-.57-1.652-.976a9.287 9.287 0 0 1-1.652-1.44v-.7a9.287 9.287 0 0 1 1.652-1.44 10.239 10.239 0 0 1 1.652-.976c1.103-.52 2.204-.861 3.306-.974 1.102-.115 2.204.166 3.306.432.55.134 1.101.245 1.652.491.551.236 1.102.581 1.652.901 1.103.67 2.204 1.032 3.306.79 1.102-.211 2.204-1.341 3.306-1.793.55-.241 1.101-.273 1.652-.201a7.072 7.072 0 0 1 1.652.394c1.103.419 2.204 1.048 3.306 2.376v.7zm0 17.827c-1.102 1.328-2.203 1.958-3.306 2.375a7.025 7.025 0 0 1-1.652.395c-.551.072-1.102.041-1.652-.201-1.102-.452-2.204-1.582-3.306-1.793-1.102-.242-2.203.12-3.306.79-.55.32-1.101.665-1.652.9-.551.247-1.102.359-1.652.492-1.102.266-2.204.547-3.306.433-1.102-.115-2.203-.455-3.306-.975a10.313 10.313 0 0 1-1.652-.976 9.328 9.328 0 0 1-1.652-1.44v-.7a9.247 9.247 0 0 1 1.652-1.44 10.166 10.166 0 0 1 1.652-.976c1.103-.52 2.204-.861 3.306-.975 1.102-.114 2.204.167 3.306.433.55.133 1.101.245 1.652.491.551.236 1.102.581 1.652.9 1.103.671 2.204 1.033 3.306.79 1.102-.21 2.204-1.34 3.306-1.793.55-.241 1.101-.272 1.652-.2.551.06 1.102.193 1.652.394 1.103.418 2.204 1.047 3.306 2.376v.7zM98.505 119.312c1.102-1.328 2.203-1.958 3.305-2.375a7.045 7.045 0 0 1 1.653-.395c.551-.072 1.102-.041 1.652.201 1.102.452 2.204 1.582 3.306 1.793 1.102.242 2.203-.12 3.305-.79.551-.32 1.102-.665 1.653-.9.551-.247 1.102-.359 1.652-.492 1.102-.266 2.204-.547 3.306-.433 1.102.115 2.203.455 3.305.975.551.266 1.102.571 1.653.976.551.383 1.102.83 1.652 1.44v.7a9.247 9.247 0 0 1-1.652 1.44c-.551.406-1.102.711-1.653.976-1.102.52-2.203.861-3.305.975-1.102.114-2.204-.167-3.306-.433-.55-.133-1.101-.245-1.652-.491-.551-.236-1.102-.581-1.653-.9-1.102-.671-2.203-1.033-3.305-.79-1.102.21-2.204 1.34-3.306 1.793-.55.241-1.101.272-1.652.2a7.042 7.042 0 0 1-1.653-.394c-1.102-.418-2.203-1.047-3.305-2.376v-.7zm0 17.827c1.102-1.329 2.203-1.958 3.305-2.376a7.146 7.146 0 0 1 1.653-.395c.551-.071 1.102-.04 1.652.202 1.102.452 2.204 1.582 3.306 1.793 1.102.242 2.203-.12 3.305-.79.551-.32 1.102-.665 1.653-.901.551-.246 1.102-.358 1.652-.491 1.102-.266 2.204-.547 3.306-.433 1.102.115 2.203.455 3.305.975.551.266 1.102.57 1.653.976.551.382 1.102.83 1.652 1.44v.7a9.287 9.287 0 0 1-1.652 1.44c-.551.405-1.102.711-1.653.976-1.102.52-2.203.861-3.305.974-1.102.115-2.204-.166-3.306-.432-.55-.134-1.101-.245-1.652-.491-.551-.236-1.102-.581-1.653-.901-1.102-.67-2.203-1.032-3.305-.79-1.102.211-2.204 1.341-3.306 1.793-.55.241-1.101.273-1.652.201a7.092 7.092 0 0 1-1.653-.394c-1.102-.419-2.203-1.048-3.305-2.376v-.7zm0 17.827c1.102-1.328 2.203-1.958 3.305-2.375a7.045 7.045 0 0 1 1.653-.395c.551-.072 1.102-.04 1.652.201 1.102.452 2.204 1.582 3.306 1.793 1.102.242 2.203-.12 3.305-.79.551-.32 1.102-.665 1.653-.9.551-.247 1.102-.359 1.652-.492 1.102-.266 2.204-.547 3.306-.432 1.102.114 2.203.454 3.305.974.551.266 1.102.571 1.653.976.551.383 1.102.83 1.652 1.44v.7a9.287 9.287 0 0 1-1.652 1.44c-.551.406-1.102.711-1.653.976-1.102.52-2.203.861-3.305.975-1.102.114-2.204-.167-3.306-.433-.55-.133-1.101-.245-1.652-.491-.551-.236-1.102-.581-1.653-.9-1.102-.671-2.203-1.033-3.305-.79-1.102.21-2.204 1.34-3.306 1.793-.55.241-1.101.272-1.652.2a7.042 7.042 0 0 1-1.653-.394c-1.102-.418-2.203-1.047-3.305-2.376v-.7zm0 17.827c1.102-1.329 2.203-1.958 3.305-2.376a7.146 7.146 0 0 1 1.653-.395c.551-.071 1.102-.04 1.652.202 1.102.452 2.204 1.582 3.306 1.793 1.102.242 2.203-.12 3.305-.79.551-.32 1.102-.665 1.653-.901.551-.246 1.102-.358 1.652-.491 1.102-.266 2.204-.547 3.306-.433 1.102.115 2.203.455 3.305.975.551.266 1.102.57 1.653.976a9.247 9.247 0 0 1 1.652 1.44v.7a9.287 9.287 0 0 1-1.652 1.44c-.551.405-1.102.71-1.653.976-1.102.52-2.203.861-3.305.974-1.102.115-2.204-.166-3.306-.432-.55-.133-1.101-.245-1.652-.491-.551-.236-1.102-.581-1.653-.901-1.102-.67-2.203-1.032-3.305-.79-1.102.211-2.204 1.341-3.306 1.793-.55.241-1.101.273-1.652.201a7.042 7.042 0 0 1-1.653-.394c-1.102-.419-2.203-1.048-3.305-2.376v-.7zm0 17.827c1.102-1.328 2.203-1.958 3.305-2.375a7.045 7.045 0 0 1 1.653-.395c.551-.072 1.102-.041 1.652.201 1.102.452 2.204 1.582 3.306 1.793 1.102.242 2.203-.12 3.305-.79.551-.32 1.102-.665 1.653-.9.551-.247 1.102-.359 1.652-.492 1.102-.266 2.204-.547 3.306-.433 1.102.115 2.203.455 3.305.975.551.266 1.102.571 1.653.976.551.383 1.102.83 1.652 1.44v.7a9.247 9.247 0 0 1-1.652 1.44c-.551.406-1.102.711-1.653.976-1.102.52-2.203.861-3.305.975-1.102.114-2.204-.167-3.306-.433-.55-.133-1.101-.245-1.652-.491-.551-.236-1.102-.581-1.653-.9-1.102-.671-2.203-1.033-3.305-.79-1.102.21-2.204 1.34-3.306 1.793-.55.241-1.101.272-1.652.2a7.042 7.042 0 0 1-1.653-.394c-1.102-.418-2.203-1.048-3.305-2.376v-.7z" fill="#939fab" fill-rule="nonzero"/><path d="M222.599 189.147c0 4.639-3.796 8.436-8.436 8.436h-67.661c-4.639 0-8.435-3.797-8.435-8.436v-67.662c0-4.639 3.796-8.435 8.435-8.435h67.661c4.64 0 8.436 3.796 8.436 8.435v67.662zm4.685-88.293h-93.902c-4.639 0-8.435 3.795-8.435 8.435v93.901c0 4.64 3.796 8.436 8.435 8.436h93.902c4.639 0 8.435-3.796 8.435-8.436v-93.901c0-4.64-3.796-8.435-8.435-8.435" fill="#087e8b" fill-rule="nonzero"/><path d="M199.184 187.459h-38.438c-6.601 0-12-5.4-12-12v-38.438c0-6.601 5.399-12 12-12h38.438c6.6 0 12 5.399 12 12v38.438c0 6.6-5.4 12-12 12" fill="#ff5a5f" fill-rule="nonzero"/><path d="M144.49 74.411c1.328 1.102 1.958 2.204 2.376 3.305.201.551.334 1.102.395 1.653.072.551.04 1.102-.202 1.653-.452 1.101-1.582 2.203-1.793 3.305-.242 1.102.12 2.204.79 3.305.32.551.665 1.102.901 1.653.246.551.358 1.102.491 1.653.266 1.101.547 2.203.433 3.305-.115 1.102-.455 2.204-.975 3.305-.266.551-.57 1.102-.976 1.653a9.326 9.326 0 0 1-1.44 1.653h-.7a9.286 9.286 0 0 1-1.44-1.653 10.132 10.132 0 0 1-.976-1.653c-.52-1.101-.861-2.203-.975-3.305-.114-1.102.167-2.204.433-3.305.134-.551.245-1.102.491-1.653.236-.551.581-1.102.9-1.653.671-1.101 1.034-2.203.79-3.305-.21-1.102-1.34-2.204-1.793-3.305-.241-.551-.272-1.102-.2-1.653a7.045 7.045 0 0 1 .395-1.653c.418-1.101 1.047-2.203 2.375-3.305h.7zm17.827 0c1.328 1.102 1.957 2.204 2.375 3.305.202.551.334 1.102.395 1.653.072.551.041 1.102-.201 1.653-.452 1.101-1.582 2.203-1.793 3.305-.243 1.102.12 2.204.79 3.305.32.551.664 1.102.901 1.653.246.551.357 1.102.491 1.653.266 1.101.547 2.203.433 3.305-.115 1.102-.455 2.204-.976 3.305a10.06 10.06 0 0 1-.976 1.653 9.318 9.318 0 0 1-1.439 1.653h-.7a9.335 9.335 0 0 1-1.441-1.653 10.196 10.196 0 0 1-.975-1.653c-.52-1.101-.861-2.203-.975-3.305-.114-1.102.167-2.204.433-3.305.133-.551.245-1.102.491-1.653.235-.551.581-1.102.9-1.653.671-1.101 1.033-2.203.79-3.305-.21-1.102-1.34-2.204-1.793-3.305-.241-.551-.273-1.102-.201-1.653a7.095 7.095 0 0 1 .395-1.653c.418-1.101 1.048-2.203 2.376-3.305h.7zm17.826 0c1.329 1.102 1.958 2.204 2.376 3.305.201.551.334 1.102.395 1.653.072.551.04 1.102-.201 1.653-.452 1.101-1.583 2.203-1.794 3.305-.242 1.102.12 2.204.79 3.305.321.551.665 1.102.901 1.653.246.551.358 1.102.492 1.653.266 1.101.547 2.203.432 3.305-.114 1.102-.454 2.204-.975 3.305-.266.551-.57 1.102-.976 1.653a9.286 9.286 0 0 1-1.44 1.653h-.699a9.294 9.294 0 0 1-1.441-1.653 10.196 10.196 0 0 1-.975-1.653c-.521-1.101-.861-2.203-.975-3.305-.114-1.102.166-2.204.432-3.305.134-.551.246-1.102.492-1.653.235-.551.58-1.102.9-1.653.67-1.101 1.033-2.203.79-3.305-.211-1.102-1.34-2.204-1.793-3.305-.241-.551-.273-1.102-.201-1.653a7.095 7.095 0 0 1 .395-1.653c.418-1.101 1.047-2.203 2.376-3.305h.699zm17.827 0c1.329 1.102 1.958 2.204 2.376 3.305.201.551.334 1.102.395 1.653.072.551.04 1.102-.202 1.653-.452 1.101-1.582 2.203-1.793 3.305-.242 1.102.12 2.204.79 3.305.32.551.665 1.102.901 1.653.246.551.358 1.102.491 1.653.266 1.101.547 2.203.433 3.305-.115 1.102-.454 2.204-.975 3.305-.266.551-.57 1.102-.976 1.653a9.326 9.326 0 0 1-1.44 1.653h-.7a9.326 9.326 0 0 1-1.44-1.653 10.124 10.124 0 0 1-.975-1.653c-.521-1.101-.862-2.203-.976-3.305-.114-1.102.167-2.204.433-3.305.134-.551.245-1.102.492-1.653.235-.551.58-1.102.9-1.653.67-1.101 1.033-2.203.79-3.305-.211-1.102-1.341-2.204-1.793-3.305-.242-.551-.273-1.102-.201-1.653a7.095 7.095 0 0 1 .395-1.653c.418-1.101 1.047-2.203 2.375-3.305h.7zm17.828 0c1.328 1.102 1.957 2.204 2.376 3.305.201.551.333 1.102.395 1.653.072.551.04 1.102-.202 1.653-.452 1.101-1.582 2.203-1.793 3.305-.242 1.102.12 2.204.79 3.305.32.551.664 1.102.901 1.653.246.551.357 1.102.491 1.653.266 1.101.547 2.203.433 3.305-.115 1.102-.455 2.204-.975 3.305-.266.551-.57 1.102-.976 1.653a9.326 9.326 0 0 1-1.44 1.653h-.7a9.286 9.286 0 0 1-1.44-1.653 10.053 10.053 0 0 1-.975-1.653c-.521-1.101-.862-2.203-.976-3.305-.114-1.102.167-2.204.433-3.305.134-.551.245-1.102.491-1.653.236-.551.581-1.102.9-1.653.671-1.101 1.033-2.203.79-3.305-.21-1.102-1.34-2.204-1.793-3.305-.241-.551-.273-1.102-.201-1.653a7.146 7.146 0 0 1 .395-1.653c.419-1.101 1.048-2.203 2.376-3.305h.7zm-69.844 163.658c-1.329-1.102-1.958-2.204-2.376-3.306a7.075 7.075 0 0 1-.395-1.652c-.072-.551-.04-1.102.201-1.653.452-1.101 1.583-2.203 1.794-3.305.242-1.102-.12-2.204-.79-3.306-.321-.55-.665-1.101-.901-1.652-.246-.551-.358-1.102-.492-1.653-.266-1.101-.547-2.203-.432-3.305.114-1.102.454-2.204.975-3.306.266-.55.57-1.101.976-1.652a9.286 9.286 0 0 1 1.44-1.653h.699a9.294 9.294 0 0 1 1.441 1.653c.405.551.71 1.102.975 1.652.521 1.102.861 2.204.975 3.306.114 1.102-.167 2.204-.432 3.305-.134.551-.246 1.102-.492 1.653-.235.551-.58 1.102-.9 1.652-.67 1.102-1.033 2.204-.79 3.306.211 1.102 1.34 2.204 1.793 3.305.241.551.273 1.102.201 1.653a7.075 7.075 0 0 1-.395 1.652c-.418 1.102-1.047 2.204-2.376 3.306h-.699zm17.826 0c-1.328-1.102-1.957-2.204-2.375-3.306a7.025 7.025 0 0 1-.395-1.652c-.072-.551-.041-1.102.201-1.653.452-1.101 1.582-2.203 1.793-3.305.243-1.102-.12-2.204-.79-3.306-.32-.55-.664-1.101-.901-1.652-.246-.551-.357-1.102-.491-1.653-.266-1.101-.547-2.203-.433-3.305.115-1.102.455-2.204.975-3.306.266-.55.57-1.101.977-1.652a9.278 9.278 0 0 1 1.439-1.653h.7a9.335 9.335 0 0 1 1.441 1.653c.405.551.71 1.102.975 1.652.52 1.102.861 2.204.975 3.306.114 1.102-.167 2.204-.433 3.305-.133.551-.245 1.102-.491 1.653-.235.551-.581 1.102-.9 1.652-.671 1.102-1.033 2.204-.79 3.306.21 1.102 1.34 2.204 1.793 3.305.241.551.273 1.102.201 1.653a7.075 7.075 0 0 1-.395 1.652c-.418 1.102-1.048 2.204-2.376 3.306h-.7zm17.827 0c-1.328-1.102-1.958-2.204-2.376-3.306a7.075 7.075 0 0 1-.395-1.652c-.072-.551-.04-1.102.202-1.653.452-1.101 1.582-2.203 1.793-3.305.242-1.102-.12-2.204-.79-3.306-.32-.55-.665-1.101-.901-1.652-.246-.551-.358-1.102-.491-1.653-.266-1.101-.547-2.203-.433-3.305.115-1.102.455-2.204.975-3.306.266-.55.57-1.101.976-1.652a9.326 9.326 0 0 1 1.44-1.653h.7a9.286 9.286 0 0 1 1.44 1.653c.406.551.711 1.102.975 1.652.521 1.102.862 2.204.976 3.306.114 1.102-.167 2.204-.433 3.305-.134.551-.245 1.102-.491 1.653-.236.551-.581 1.102-.9 1.652-.671 1.102-1.034 2.204-.79 3.306.21 1.102 1.34 2.204 1.793 3.305.241.551.272 1.102.2 1.653a7.025 7.025 0 0 1-.395 1.652c-.418 1.102-1.047 2.204-2.375 3.306h-.7zm17.827 0c-1.329-1.102-1.958-2.204-2.376-3.306a7.075 7.075 0 0 1-.395-1.652c-.072-.551-.04-1.102.202-1.653.452-1.101 1.582-2.203 1.793-3.305.242-1.102-.12-2.204-.79-3.306-.321-.55-.665-1.101-.901-1.652-.246-.551-.358-1.102-.492-1.653-.266-1.101-.546-2.203-.432-3.305.115-1.102.454-2.204.975-3.306.266-.55.57-1.101.976-1.652a9.286 9.286 0 0 1 1.44-1.653h.699a9.294 9.294 0 0 1 1.441 1.653c.405.551.71 1.102.975 1.652.521 1.102.862 2.204.975 3.306.115 1.102-.166 2.204-.432 3.305-.134.551-.246 1.102-.492 1.653-.235.551-.58 1.102-.9 1.652-.67 1.102-1.033 2.204-.79 3.306.211 1.102 1.341 2.204 1.794 3.305.24.551.272 1.102.2 1.653a7.075 7.075 0 0 1-.395 1.652c-.418 1.102-1.047 2.204-2.376 3.306h-.699zm17.826 0c-1.328-1.102-1.957-2.204-2.375-3.306a7.075 7.075 0 0 1-.395-1.652c-.072-.551-.041-1.102.202-1.653.451-1.101 1.582-2.203 1.793-3.305.242-1.102-.121-2.204-.79-3.306-.321-.55-.665-1.101-.901-1.652-.247-.551-.358-1.102-.492-1.653-.266-1.101-.547-2.203-.433-3.305.115-1.102.455-2.204.976-3.306.265-.55.57-1.101.976-1.652a9.318 9.318 0 0 1 1.439-1.653h.7a9.335 9.335 0 0 1 1.441 1.653c.405.551.71 1.102.975 1.652.521 1.102.861 2.204.975 3.306.114 1.102-.167 2.204-.433 3.305-.133.551-.245 1.102-.491 1.653-.235.551-.581 1.102-.9 1.652-.671 1.102-1.033 2.204-.79 3.306.21 1.102 1.34 2.204 1.793 3.305.241.551.273 1.102.201 1.653a7.075 7.075 0 0 1-.395 1.652c-.418 1.102-1.047 2.204-2.376 3.306h-.7z" fill="#939fab" fill-rule="nonzero"/></svg>