<?xml version="1.0" encoding="UTF-8" standalone="no"?><!DOCTYPE svg PUBLIC "-//W3C//DTD SVG 1.1//EN" "http://www.w3.org/Graphics/SVG/1.1/DTD/svg11.dtd"><svg width="100%" height="100%" viewBox="0 0 359 312" version="1.1" xmlns="http://www.w3.org/2000/svg" xmlns:xlink="http://www.w3.org/1999/xlink" xml:space="preserve" style="fill-rule:evenodd;clip-rule:evenodd;stroke-linejoin:round;stroke-miterlimit:1.41421;"><path d="M353.633,155.962l-87.158,-150.962l-174.316,0l-87.159,150.963l87.158,150.962l174.317,-0.001l87.158,-150.962Z" style="fill:#f5f5f5;fill-rule:nonzero;stroke:#3c3c3c;stroke-width:10px;"/><path d="M262.162,120.936c-1.102,1.328 -2.203,1.958 -3.306,2.375c-0.55,0.202 -1.101,0.334 -1.652,0.395c-0.551,0.072 -1.102,0.041 -1.652,-0.201c-1.102,-0.452 -2.204,-1.582 -3.306,-1.793c-1.102,-0.242 -2.203,0.12 -3.306,0.79c-0.55,0.32 -1.101,0.665 -1.652,0.9c-0.551,0.247 -1.102,0.359 -1.652,0.492c-1.102,0.266 -2.204,0.547 -3.306,0.433c-1.102,-0.115 -2.203,-0.455 -3.306,-0.975c-0.55,-0.266 -1.101,-0.571 -1.652,-0.976c-0.551,-0.383 -1.102,-0.83 -1.652,-1.44l0,-0.7c0.55,-0.611 1.101,-1.058 1.652,-1.44c0.551,-0.406 1.102,-0.711 1.652,-0.976c1.103,-0.52 2.204,-0.861 3.306,-0.975c1.102,-0.114 2.204,0.167 3.306,0.433c0.55,0.133 1.101,0.245 1.652,0.491c0.551,0.236 1.102,0.581 1.652,0.9c1.103,0.671 2.204,1.033 3.306,0.79c1.102,-0.21 2.204,-1.34 3.306,-1.793c0.55,-0.241 1.101,-0.272 1.652,-0.2c0.551,0.06 1.102,0.193 1.652,0.394c1.103,0.418 2.204,1.048 3.306,2.376l0,0.7Z" style="fill:#939fab;fill-rule:nonzero;"/><path d="M262.162,138.763c-1.102,1.329 -2.203,1.958 -3.306,2.376c-0.55,0.201 -1.101,0.333 -1.652,0.395c-0.551,0.071 -1.102,0.04 -1.652,-0.202c-1.102,-0.452 -2.204,-1.582 -3.306,-1.793c-1.102,-0.242 -2.203,0.12 -3.306,0.79c-0.55,0.32 -1.101,0.665 -1.652,0.901c-0.551,0.246 -1.102,0.358 -1.652,0.491c-1.102,0.266 -2.204,0.547 -3.306,0.433c-1.102,-0.115 -2.203,-0.455 -3.306,-0.975c-0.55,-0.266 -1.101,-0.57 -1.652,-0.976c-0.551,-0.382 -1.102,-0.829 -1.652,-1.44l0,-0.7c0.55,-0.611 1.101,-1.057 1.652,-1.44c0.551,-0.405 1.102,-0.71 1.652,-0.976c1.103,-0.52 2.204,-0.861 3.306,-0.974c1.102,-0.115 2.204,0.166 3.306,0.432c0.55,0.133 1.101,0.245 1.652,0.491c0.551,0.236 1.102,0.581 1.652,0.901c1.103,0.67 2.204,1.032 3.306,0.79c1.102,-0.211 2.204,-1.341 3.306,-1.793c0.55,-0.241 1.101,-0.273 1.652,-0.201c0.551,0.06 1.102,0.193 1.652,0.394c1.103,0.419 2.204,1.048 3.306,2.376l0,0.7Z" style="fill:#939fab;fill-rule:nonzero;"/><path d="M262.162,156.59c-1.102,1.328 -2.203,1.958 -3.306,2.375c-0.55,0.202 -1.101,0.334 -1.652,0.395c-0.551,0.072 -1.102,0.04 -1.652,-0.201c-1.102,-0.452 -2.204,-1.582 -3.306,-1.793c-1.102,-0.242 -2.203,0.12 -3.306,0.79c-0.55,0.32 -1.101,0.665 -1.652,0.9c-0.551,0.247 -1.102,0.359 -1.652,0.492c-1.102,0.266 -2.204,0.547 -3.306,0.432c-1.102,-0.114 -2.203,-0.454 -3.306,-0.974c-0.55,-0.266 -1.101,-0.571 -1.652,-0.976c-0.551,-0.383 -1.102,-0.83 -1.652,-1.44l0,-0.7c0.55,-0.611 1.101,-1.057 1.652,-1.44c0.551,-0.406 1.102,-0.711 1.652,-0.976c1.103,-0.52 2.204,-0.861 3.306,-0.975c1.102,-0.114 2.204,0.167 3.306,0.433c0.55,0.133 1.101,0.245 1.652,0.491c0.551,0.236 1.102,0.581 1.652,0.9c1.103,0.671 2.204,1.033 3.306,0.79c1.102,-0.21 2.204,-1.34 3.306,-1.793c0.55,-0.241 1.101,-0.272 1.652,-0.2c0.551,0.06 1.102,0.193 1.652,0.394c1.103,0.418 2.204,1.047 3.306,2.376l0,0.7Z" style="fill:#939fab;fill-rule:nonzero;"/><path d="M262.162,174.417c-1.102,1.329 -2.203,1.958 -3.306,2.376c-0.55,0.201 -1.101,0.333 -1.652,0.395c-0.551,0.071 -1.102,0.04 -1.652,-0.202c-1.102,-0.452 -2.204,-1.582 -3.306,-1.793c-1.102,-0.242 -2.203,0.12 -3.306,0.79c-0.55,0.32 -1.101,0.665 -1.652,0.901c-0.551,0.246 -1.102,0.358 -1.652,0.491c-1.102,0.266 -2.204,0.547 -3.306,0.433c-1.102,-0.115 -2.203,-0.455 -3.306,-0.975c-0.55,-0.266 -1.101,-0.57 -1.652,-0.976c-0.551,-0.382 -1.102,-0.83 -1.652,-1.44l0,-0.7c0.55,-0.611 1.101,-1.057 1.652,-1.44c0.551,-0.405 1.102,-0.711 1.652,-0.976c1.103,-0.52 2.204,-0.861 3.306,-0.974c1.102,-0.115 2.204,0.166 3.306,0.432c0.55,0.134 1.101,0.245 1.652,0.491c0.551,0.236 1.102,0.581 1.652,0.901c1.103,0.67 2.204,1.032 3.306,0.79c1.102,-0.211 2.204,-1.341 3.306,-1.793c0.55,-0.241 1.101,-0.273 1.652,-0.201c0.551,0.061 1.102,0.193 1.652,0.394c1.103,0.419 2.204,1.048 3.306,2.376l0,0.7Z" style="fill:#939fab;fill-rule:nonzero;"/><path d="M262.162,192.244c-1.102,1.328 -2.203,1.958 -3.306,2.375c-0.55,0.202 -1.101,0.334 -1.652,0.395c-0.551,0.072 -1.102,0.041 -1.652,-0.201c-1.102,-0.452 -2.204,-1.582 -3.306,-1.793c-1.102,-0.242 -2.203,0.12 -3.306,0.79c-0.55,0.32 -1.101,0.665 -1.652,0.9c-0.551,0.247 -1.102,0.359 -1.652,0.492c-1.102,0.266 -2.204,0.547 -3.306,0.433c-1.102,-0.115 -2.203,-0.455 -3.306,-0.975c-0.55,-0.266 -1.101,-0.571 -1.652,-0.976c-0.551,-0.383 -1.102,-0.83 -1.652,-1.44l0,-0.7c0.55,-0.611 1.101,-1.058 1.652,-1.44c0.551,-0.406 1.102,-0.711 1.652,-0.976c1.103,-0.52 2.204,-0.861 3.306,-0.975c1.102,-0.114 2.204,0.167 3.306,0.433c0.55,0.133 1.101,0.245 1.652,0.491c0.551,0.236 1.102,0.581 1.652,0.9c1.103,0.671 2.204,1.033 3.306,0.79c1.102,-0.21 2.204,-1.34 3.306,-1.793c0.55,-0.241 1.101,-0.272 1.652,-0.2c0.551,0.06 1.102,0.193 1.652,0.394c1.103,0.418 2.204,1.047 3.306,2.376l0,0.7Z" style="fill:#939fab;fill-rule:nonzero;"/><path d="M98.505,119.312c1.102,-1.328 2.203,-1.958 3.305,-2.375c0.551,-0.202 1.102,-0.334 1.653,-0.395c0.551,-0.072 1.102,-0.041 1.652,0.201c1.102,0.452 2.204,1.582 3.306,1.793c1.102,0.242 2.203,-0.12 3.305,-0.79c0.551,-0.32 1.102,-0.665 1.653,-0.9c0.551,-0.247 1.102,-0.359 1.652,-0.492c1.102,-0.266 2.204,-0.547 3.306,-0.433c1.102,0.115 2.203,0.455 3.305,0.975c0.551,0.266 1.102,0.571 1.653,0.976c0.551,0.383 1.102,0.83 1.652,1.44l0,0.7c-0.55,0.611 -1.101,1.058 -1.652,1.44c-0.551,0.406 -1.102,0.711 -1.653,0.976c-1.102,0.52 -2.203,0.861 -3.305,0.975c-1.102,0.114 -2.204,-0.167 -3.306,-0.433c-0.55,-0.133 -1.101,-0.245 -1.652,-0.491c-0.551,-0.236 -1.102,-0.581 -1.653,-0.9c-1.102,-0.671 -2.203,-1.033 -3.305,-0.79c-1.102,0.21 -2.204,1.34 -3.306,1.793c-0.55,0.241 -1.101,0.272 -1.652,0.2c-0.551,-0.06 -1.102,-0.193 -1.653,-0.394c-1.102,-0.418 -2.203,-1.047 -3.305,-2.376l0,-0.7Z" style="fill:#939fab;fill-rule:nonzero;"/><path d="M98.505,137.139c1.102,-1.329 2.203,-1.958 3.305,-2.376c0.551,-0.201 1.102,-0.333 1.653,-0.395c0.551,-0.071 1.102,-0.04 1.652,0.202c1.102,0.452 2.204,1.582 3.306,1.793c1.102,0.242 2.203,-0.12 3.305,-0.79c0.551,-0.32 1.102,-0.665 1.653,-0.901c0.551,-0.246 1.102,-0.358 1.652,-0.491c1.102,-0.266 2.204,-0.547 3.306,-0.433c1.102,0.115 2.203,0.455 3.305,0.975c0.551,0.266 1.102,0.57 1.653,0.976c0.551,0.382 1.102,0.83 1.652,1.44l0,0.7c-0.55,0.611 -1.101,1.057 -1.652,1.44c-0.551,0.405 -1.102,0.711 -1.653,0.976c-1.102,0.52 -2.203,0.861 -3.305,0.974c-1.102,0.115 -2.204,-0.166 -3.306,-0.432c-0.55,-0.134 -1.101,-0.245 -1.652,-0.491c-0.551,-0.236 -1.102,-0.581 -1.653,-0.901c-1.102,-0.67 -2.203,-1.032 -3.305,-0.79c-1.102,0.211 -2.204,1.341 -3.306,1.793c-0.55,0.241 -1.101,0.273 -1.652,0.201c-0.551,-0.061 -1.102,-0.193 -1.653,-0.394c-1.102,-0.419 -2.203,-1.048 -3.305,-2.376l0,-0.7Z" style="fill:#939fab;fill-rule:nonzero;"/><path d="M98.505,154.966c1.102,-1.328 2.203,-1.958 3.305,-2.375c0.551,-0.202 1.102,-0.334 1.653,-0.395c0.551,-0.072 1.102,-0.04 1.652,0.201c1.102,0.452 2.204,1.582 3.306,1.793c1.102,0.242 2.203,-0.12 3.305,-0.79c0.551,-0.32 1.102,-0.665 1.653,-0.9c0.551,-0.247 1.102,-0.359 1.652,-0.492c1.102,-0.266 2.204,-0.547 3.306,-0.432c1.102,0.114 2.203,0.454 3.305,0.974c0.551,0.266 1.102,0.571 1.653,0.976c0.551,0.383 1.102,0.83 1.652,1.44l0,0.7c-0.55,0.611 -1.101,1.057 -1.652,1.44c-0.551,0.406 -1.102,0.711 -1.653,0.976c-1.102,0.52 -2.203,0.861 -3.305,0.975c-1.102,0.114 -2.204,-0.167 -3.306,-0.433c-0.55,-0.133 -1.101,-0.245 -1.652,-0.491c-0.551,-0.236 -1.102,-0.581 -1.653,-0.9c-1.102,-0.671 -2.203,-1.033 -3.305,-0.79c-1.102,0.21 -2.204,1.34 -3.306,1.793c-0.55,0.241 -1.101,0.272 -1.652,0.2c-0.551,-0.06 -1.102,-0.193 -1.653,-0.394c-1.102,-0.418 -2.203,-1.047 -3.305,-2.376l0,-0.7Z" style="fill:#939fab;fill-rule:nonzero;"/><path d="M98.505,172.793c1.102,-1.329 2.203,-1.958 3.305,-2.376c0.551,-0.201 1.102,-0.333 1.653,-0.395c0.551,-0.071 1.102,-0.04 1.652,0.202c1.102,0.452 2.204,1.582 3.306,1.793c1.102,0.242 2.203,-0.12 3.305,-0.79c0.551,-0.32 1.102,-0.665 1.653,-0.901c0.551,-0.246 1.102,-0.358 1.652,-0.491c1.102,-0.266 2.204,-0.547 3.306,-0.433c1.102,0.115 2.203,0.455 3.305,0.975c0.551,0.266 1.102,0.57 1.653,0.976c0.551,0.382 1.102,0.829 1.652,1.44l0,0.7c-0.55,0.611 -1.101,1.057 -1.652,1.44c-0.551,0.405 -1.102,0.71 -1.653,0.976c-1.102,0.52 -2.203,0.861 -3.305,0.974c-1.102,0.115 -2.204,-0.166 -3.306,-0.432c-0.55,-0.133 -1.101,-0.245 -1.652,-0.491c-0.551,-0.236 -1.102,-0.581 -1.653,-0.901c-1.102,-0.67 -2.203,-1.032 -3.305,-0.79c-1.102,0.211 -2.204,1.341 -3.306,1.793c-0.55,0.241 -1.101,0.273 -1.652,0.201c-0.551,-0.06 -1.102,-0.193 -1.653,-0.394c-1.102,-0.419 -2.203,-1.048 -3.305,-2.376l0,-0.7Z" style="fill:#939fab;fill-rule:nonzero;"/><path d="M98.505,190.62c1.102,-1.328 2.203,-1.958 3.305,-2.375c0.551,-0.202 1.102,-0.334 1.653,-0.395c0.551,-0.072 1.102,-0.041 1.652,0.201c1.102,0.452 2.204,1.582 3.306,1.793c1.102,0.242 2.203,-0.12 3.305,-0.79c0.551,-0.32 1.102,-0.665 1.653,-0.9c0.551,-0.247 1.102,-0.359 1.652,-0.492c1.102,-0.266 2.204,-0.547 3.306,-0.433c1.102,0.115 2.203,0.455 3.305,0.975c0.551,0.266 1.102,0.571 1.653,0.976c0.551,0.383 1.102,0.83 1.652,1.44l0,0.7c-0.55,0.611 -1.101,1.058 -1.652,1.44c-0.551,0.406 -1.102,0.711 -1.653,0.976c-1.102,0.52 -2.203,0.861 -3.305,0.975c-1.102,0.114 -2.204,-0.167 -3.306,-0.433c-0.55,-0.133 -1.101,-0.245 -1.652,-0.491c-0.551,-0.236 -1.102,-0.581 -1.653,-0.9c-1.102,-0.671 -2.203,-1.033 -3.305,-0.79c-1.102,0.21 -2.204,1.34 -3.306,1.793c-0.55,0.241 -1.101,0.272 -1.652,0.2c-0.551,-0.06 -1.102,-0.193 -1.653,-0.394c-1.102,-0.418 -2.203,-1.048 -3.305,-2.376l0,-0.7Z" style="fill:#939fab;fill-rule:nonzero;"/><path d="M222.599,189.147c0,4.639 -3.796,8.436 -8.436,8.436l-67.661,0c-4.639,0 -8.435,-3.797 -8.435,-8.436l0,-67.662c0,-4.639 3.796,-8.435 8.435,-8.435l67.661,0c4.64,0 8.436,3.796 8.436,8.435l0,67.662Zm4.685,-88.293l-93.902,0c-4.639,0 -8.435,3.795 -8.435,8.435l0,93.901c0,4.64 3.796,8.436 8.435,8.436l93.902,0c4.639,0 8.435,-3.796 8.435,-8.436l0,-93.901c0,-4.64 -3.796,-8.435 -8.435,-8.435" style="fill:#087e8b;fill-rule:nonzero;"/><path d="M199.184,187.459l-38.438,0c-6.601,0 -12,-5.4 -12,-12l0,-38.438c0,-6.601 5.399,-12 12,-12l38.438,0c6.6,0 12,5.399 12,12l0,38.438c0,6.6 -5.4,12 -12,12" style="fill:#ff5a5f;fill-rule:nonzero;"/><path d="M144.49,74.411c1.328,1.102 1.958,2.204 2.376,3.305c0.201,0.551 0.334,1.102 0.395,1.653c0.072,0.551 0.04,1.102 -0.202,1.653c-0.452,1.101 -1.582,2.203 -1.793,3.305c-0.242,1.102 0.12,2.204 0.79,3.305c0.32,0.551 0.665,1.102 0.901,1.653c0.246,0.551 0.358,1.102 0.491,1.653c0.266,1.101 0.547,2.203 0.433,3.305c-0.115,1.102 -0.455,2.204 -0.975,3.305c-0.266,0.551 -0.57,1.102 -0.976,1.653c-0.382,0.551 -0.83,1.102 -1.44,1.653l-0.7,0c-0.611,-0.551 -1.058,-1.102 -1.44,-1.653c-0.406,-0.551 -0.711,-1.102 -0.976,-1.653c-0.52,-1.101 -0.861,-2.203 -0.975,-3.305c-0.114,-1.102 0.167,-2.204 0.433,-3.305c0.134,-0.551 0.245,-1.102 0.491,-1.653c0.236,-0.551 0.581,-1.102 0.9,-1.653c0.671,-1.101 1.034,-2.203 0.79,-3.305c-0.21,-1.102 -1.34,-2.204 -1.793,-3.305c-0.241,-0.551 -0.272,-1.102 -0.2,-1.653c0.061,-0.551 0.193,-1.102 0.395,-1.653c0.418,-1.101 1.047,-2.203 2.375,-3.305l0.7,0Z" style="fill:#939fab;fill-rule:nonzero;"/><path d="M162.317,74.411c1.328,1.102 1.957,2.204 2.375,3.305c0.202,0.551 0.334,1.102 0.395,1.653c0.072,0.551 0.041,1.102 -0.201,1.653c-0.452,1.101 -1.582,2.203 -1.793,3.305c-0.243,1.102 0.12,2.204 0.79,3.305c0.32,0.551 0.664,1.102 0.901,1.653c0.246,0.551 0.357,1.102 0.491,1.653c0.266,1.101 0.547,2.203 0.433,3.305c-0.115,1.102 -0.455,2.204 -0.976,3.305c-0.265,0.551 -0.569,1.102 -0.976,1.653c-0.382,0.551 -0.829,1.102 -1.439,1.653l-0.7,0c-0.611,-0.551 -1.058,-1.102 -1.441,-1.653c-0.405,-0.551 -0.71,-1.102 -0.975,-1.653c-0.52,-1.101 -0.861,-2.203 -0.975,-3.305c-0.114,-1.102 0.167,-2.204 0.433,-3.305c0.133,-0.551 0.245,-1.102 0.491,-1.653c0.235,-0.551 0.581,-1.102 0.9,-1.653c0.671,-1.101 1.033,-2.203 0.79,-3.305c-0.21,-1.102 -1.34,-2.204 -1.793,-3.305c-0.241,-0.551 -0.273,-1.102 -0.201,-1.653c0.061,-0.551 0.194,-1.102 0.395,-1.653c0.418,-1.101 1.048,-2.203 2.376,-3.305l0.7,0Z" style="fill:#939fab;fill-rule:nonzero;"/><path d="M180.143,74.411c1.329,1.102 1.958,2.204 2.376,3.305c0.201,0.551 0.334,1.102 0.395,1.653c0.072,0.551 0.04,1.102 -0.201,1.653c-0.452,1.101 -1.583,2.203 -1.794,3.305c-0.242,1.102 0.12,2.204 0.79,3.305c0.321,0.551 0.665,1.102 0.901,1.653c0.246,0.551 0.358,1.102 0.492,1.653c0.266,1.101 0.547,2.203 0.432,3.305c-0.114,1.102 -0.454,2.204 -0.975,3.305c-0.266,0.551 -0.57,1.102 -0.976,1.653c-0.382,0.551 -0.829,1.102 -1.44,1.653l-0.699,0c-0.612,-0.551 -1.058,-1.102 -1.441,-1.653c-0.405,-0.551 -0.71,-1.102 -0.975,-1.653c-0.521,-1.101 -0.861,-2.203 -0.975,-3.305c-0.114,-1.102 0.166,-2.204 0.432,-3.305c0.134,-0.551 0.246,-1.102 0.492,-1.653c0.235,-0.551 0.58,-1.102 0.9,-1.653c0.67,-1.101 1.033,-2.203 0.79,-3.305c-0.211,-1.102 -1.34,-2.204 -1.793,-3.305c-0.241,-0.551 -0.273,-1.102 -0.201,-1.653c0.061,-0.551 0.194,-1.102 0.395,-1.653c0.418,-1.101 1.047,-2.203 2.376,-3.305l0.699,0Z" style="fill:#939fab;fill-rule:nonzero;"/><path d="M197.97,74.411c1.329,1.102 1.958,2.204 2.376,3.305c0.201,0.551 0.334,1.102 0.395,1.653c0.072,0.551 0.04,1.102 -0.202,1.653c-0.452,1.101 -1.582,2.203 -1.793,3.305c-0.242,1.102 0.12,2.204 0.79,3.305c0.32,0.551 0.665,1.102 0.901,1.653c0.246,0.551 0.358,1.102 0.491,1.653c0.266,1.101 0.547,2.203 0.433,3.305c-0.115,1.102 -0.454,2.204 -0.975,3.305c-0.266,0.551 -0.57,1.102 -0.976,1.653c-0.382,0.551 -0.83,1.102 -1.44,1.653l-0.7,0c-0.611,-0.551 -1.057,-1.102 -1.44,-1.653c-0.405,-0.551 -0.711,-1.102 -0.975,-1.653c-0.521,-1.101 -0.862,-2.203 -0.976,-3.305c-0.114,-1.102 0.167,-2.204 0.433,-3.305c0.134,-0.551 0.245,-1.102 0.492,-1.653c0.235,-0.551 0.58,-1.102 0.9,-1.653c0.67,-1.101 1.033,-2.203 0.79,-3.305c-0.211,-1.102 -1.341,-2.204 -1.793,-3.305c-0.242,-0.551 -0.273,-1.102 -0.201,-1.653c0.061,-0.551 0.194,-1.102 0.395,-1.653c0.418,-1.101 1.047,-2.203 2.375,-3.305l0.7,0Z" style="fill:#939fab;fill-rule:nonzero;"/><path d="M215.798,74.411c1.328,1.102 1.957,2.204 2.376,3.305c0.201,0.551 0.333,1.102 0.395,1.653c0.072,0.551 0.04,1.102 -0.202,1.653c-0.452,1.101 -1.582,2.203 -1.793,3.305c-0.242,1.102 0.12,2.204 0.79,3.305c0.32,0.551 0.664,1.102 0.901,1.653c0.246,0.551 0.357,1.102 0.491,1.653c0.266,1.101 0.547,2.203 0.433,3.305c-0.115,1.102 -0.455,2.204 -0.975,3.305c-0.266,0.551 -0.57,1.102 -0.976,1.653c-0.382,0.551 -0.83,1.102 -1.44,1.653l-0.7,0c-0.611,-0.551 -1.058,-1.102 -1.44,-1.653c-0.406,-0.551 -0.711,-1.102 -0.975,-1.653c-0.521,-1.101 -0.862,-2.203 -0.976,-3.305c-0.114,-1.102 0.167,-2.204 0.433,-3.305c0.134,-0.551 0.245,-1.102 0.491,-1.653c0.236,-0.551 0.581,-1.102 0.9,-1.653c0.671,-1.101 1.033,-2.203 0.79,-3.305c-0.21,-1.102 -1.34,-2.204 -1.793,-3.305c-0.241,-0.551 -0.273,-1.102 -0.201,-1.653c0.062,-0.551 0.194,-1.102 0.395,-1.653c0.419,-1.101 1.048,-2.203 2.376,-3.305l0.7,0Z" style="fill:#939fab;fill-rule:nonzero;"/><path d="M145.954,238.069c-1.329,-1.102 -1.958,-2.204 -2.376,-3.306c-0.201,-0.55 -0.334,-1.101 -0.395,-1.652c-0.072,-0.551 -0.04,-1.102 0.201,-1.653c0.452,-1.101 1.583,-2.203 1.794,-3.305c0.242,-1.102 -0.12,-2.204 -0.79,-3.306c-0.321,-0.55 -0.665,-1.101 -0.901,-1.652c-0.246,-0.551 -0.358,-1.102 -0.492,-1.653c-0.266,-1.101 -0.547,-2.203 -0.432,-3.305c0.114,-1.102 0.454,-2.204 0.975,-3.306c0.266,-0.55 0.57,-1.101 0.976,-1.652c0.382,-0.551 0.829,-1.102 1.44,-1.653l0.699,0c0.612,0.551 1.058,1.102 1.441,1.653c0.405,0.551 0.71,1.102 0.975,1.652c0.521,1.102 0.861,2.204 0.975,3.306c0.114,1.102 -0.167,2.204 -0.432,3.305c-0.134,0.551 -0.246,1.102 -0.492,1.653c-0.235,0.551 -0.58,1.102 -0.9,1.652c-0.67,1.102 -1.033,2.204 -0.79,3.306c0.211,1.102 1.34,2.204 1.793,3.305c0.241,0.551 0.273,1.102 0.201,1.653c-0.061,0.551 -0.194,1.102 -0.395,1.652c-0.418,1.102 -1.047,2.204 -2.376,3.306l-0.699,0Z" style="fill:#939fab;fill-rule:nonzero;"/><path d="M163.78,238.069c-1.328,-1.102 -1.957,-2.204 -2.375,-3.306c-0.202,-0.55 -0.334,-1.101 -0.395,-1.652c-0.072,-0.551 -0.041,-1.102 0.201,-1.653c0.452,-1.101 1.582,-2.203 1.793,-3.305c0.243,-1.102 -0.12,-2.204 -0.79,-3.306c-0.32,-0.55 -0.664,-1.101 -0.901,-1.652c-0.246,-0.551 -0.357,-1.102 -0.491,-1.653c-0.266,-1.101 -0.547,-2.203 -0.433,-3.305c0.115,-1.102 0.455,-2.204 0.975,-3.306c0.266,-0.55 0.57,-1.101 0.977,-1.652c0.381,-0.551 0.829,-1.102 1.439,-1.653l0.7,0c0.611,0.551 1.058,1.102 1.441,1.653c0.405,0.551 0.71,1.102 0.975,1.652c0.52,1.102 0.861,2.204 0.975,3.306c0.114,1.102 -0.167,2.204 -0.433,3.305c-0.133,0.551 -0.245,1.102 -0.491,1.653c-0.235,0.551 -0.581,1.102 -0.9,1.652c-0.671,1.102 -1.033,2.204 -0.79,3.306c0.21,1.102 1.34,2.204 1.793,3.305c0.241,0.551 0.273,1.102 0.201,1.653c-0.061,0.551 -0.194,1.102 -0.395,1.652c-0.418,1.102 -1.048,2.204 -2.376,3.306l-0.7,0Z" style="fill:#939fab;fill-rule:nonzero;"/><path d="M181.607,238.069c-1.328,-1.102 -1.958,-2.204 -2.376,-3.306c-0.201,-0.55 -0.334,-1.101 -0.395,-1.652c-0.072,-0.551 -0.04,-1.102 0.202,-1.653c0.452,-1.101 1.582,-2.203 1.793,-3.305c0.242,-1.102 -0.12,-2.204 -0.79,-3.306c-0.32,-0.55 -0.665,-1.101 -0.901,-1.652c-0.246,-0.551 -0.358,-1.102 -0.491,-1.653c-0.266,-1.101 -0.547,-2.203 -0.433,-3.305c0.115,-1.102 0.455,-2.204 0.975,-3.306c0.266,-0.55 0.57,-1.101 0.976,-1.652c0.382,-0.551 0.83,-1.102 1.44,-1.653l0.7,0c0.611,0.551 1.058,1.102 1.44,1.653c0.406,0.551 0.711,1.102 0.975,1.652c0.521,1.102 0.862,2.204 0.976,3.306c0.114,1.102 -0.167,2.204 -0.433,3.305c-0.134,0.551 -0.245,1.102 -0.491,1.653c-0.236,0.551 -0.581,1.102 -0.9,1.652c-0.671,1.102 -1.034,2.204 -0.79,3.306c0.21,1.102 1.34,2.204 1.793,3.305c0.241,0.551 0.272,1.102 0.2,1.653c-0.061,0.551 -0.193,1.102 -0.395,1.652c-0.418,1.102 -1.047,2.204 -2.375,3.306l-0.7,0Z" style="fill:#939fab;fill-rule:nonzero;"/><path d="M199.434,238.069c-1.329,-1.102 -1.958,-2.204 -2.376,-3.306c-0.201,-0.55 -0.334,-1.101 -0.395,-1.652c-0.072,-0.551 -0.04,-1.102 0.202,-1.653c0.452,-1.101 1.582,-2.203 1.793,-3.305c0.242,-1.102 -0.12,-2.204 -0.79,-3.306c-0.321,-0.55 -0.665,-1.101 -0.901,-1.652c-0.246,-0.551 -0.358,-1.102 -0.492,-1.653c-0.266,-1.101 -0.546,-2.203 -0.432,-3.305c0.115,-1.102 0.454,-2.204 0.975,-3.306c0.266,-0.55 0.57,-1.101 0.976,-1.652c0.382,-0.551 0.829,-1.102 1.44,-1.653l0.699,0c0.612,0.551 1.058,1.102 1.441,1.653c0.405,0.551 0.71,1.102 0.975,1.652c0.521,1.102 0.862,2.204 0.975,3.306c0.115,1.102 -0.166,2.204 -0.432,3.305c-0.134,0.551 -0.246,1.102 -0.492,1.653c-0.235,0.551 -0.58,1.102 -0.9,1.652c-0.67,1.102 -1.033,2.204 -0.79,3.306c0.211,1.102 1.341,2.204 1.794,3.305c0.24,0.551 0.272,1.102 0.2,1.653c-0.061,0.551 -0.194,1.102 -0.395,1.652c-0.418,1.102 -1.047,2.204 -2.376,3.306l-0.699,0Z" style="fill:#939fab;fill-rule:nonzero;"/><path d="M217.26,238.069c-1.328,-1.102 -1.957,-2.204 -2.375,-3.306c-0.201,-0.55 -0.334,-1.101 -0.395,-1.652c-0.072,-0.551 -0.041,-1.102 0.202,-1.653c0.451,-1.101 1.582,-2.203 1.793,-3.305c0.242,-1.102 -0.121,-2.204 -0.79,-3.306c-0.321,-0.55 -0.665,-1.101 -0.901,-1.652c-0.247,-0.551 -0.358,-1.102 -0.492,-1.653c-0.266,-1.101 -0.547,-2.203 -0.433,-3.305c0.115,-1.102 0.455,-2.204 0.976,-3.306c0.265,-0.55 0.57,-1.101 0.976,-1.652c0.382,-0.551 0.829,-1.102 1.439,-1.653l0.7,0c0.611,0.551 1.058,1.102 1.441,1.653c0.405,0.551 0.71,1.102 0.975,1.652c0.521,1.102 0.861,2.204 0.975,3.306c0.114,1.102 -0.167,2.204 -0.433,3.305c-0.133,0.551 -0.245,1.102 -0.491,1.653c-0.235,0.551 -0.581,1.102 -0.9,1.652c-0.671,1.102 -1.033,2.204 -0.79,3.306c0.21,1.102 1.34,2.204 1.793,3.305c0.241,0.551 0.273,1.102 0.201,1.653c-0.061,0.551 -0.194,1.102 -0.395,1.652c-0.418,1.102 -1.047,2.204 -2.376,3.306l-0.7,0Z" style="fill:#939fab;fill-rule:nonzero;"/></svg>