<?xml version="1.0" encoding="UTF-8" standalone="no"?><!DOCTYPE svg PUBLIC "-//W3C//DTD SVG 1.1//EN" "http://www.w3.org/Graphics/SVG/1.1/DTD/svg11.dtd"><svg width="100%" height="100%" viewBox="0 0 359 312" version="1.1" xmlns="http://www.w3.org/2000/svg" xmlns:xlink="http://www.w3.org/1999/xlink" xml:space="preserve" style="fill-rule:evenodd;clip-rule:evenodd;stroke-linejoin:round;stroke-miterlimit:1.41421;"><path d="M353.632,155.963l-87.158,-150.962l-174.317,-0.001l-87.157,150.963l87.158,150.962l174.316,0l87.158,-150.962Z" style="fill:#f5f5f5;fill-rule:nonzero;stroke:#3c3c3c;stroke-width:10px;"/><path d="M128.415,67.696l-50.207,130.13c32.62,20.804 65.24,20.804 97.86,0l-47.653,-130.13Z" style="fill:#087e8b;fill-rule:nonzero;"/><path d="M208.765,103.805l-35.814,31.925l2.63,47.905l39.095,27.813l46.118,-13.225l18.416,-44.303l-23.155,-42.019l-47.29,-8.096Z" style="fill:#939fab;fill-rule:nonzero;"/><path d="M230.642,193.435c0,24.524 -19.881,44.404 -44.405,44.404c-24.524,0 -44.405,-19.88 -44.405,-44.404c0,-24.524 19.881,-44.405 44.405,-44.405c24.524,0 44.405,19.881 44.405,44.405" style="fill:#ff5a5f;fill-rule:nonzero;"/></svg>