<svg viewBox="0 0 359 312" xmlns="http://www.w3.org/2000/svg" fill-rule="evenodd" clip-rule="evenodd" stroke-linejoin="round" stroke-miterlimit="1.414"><path d="M353.632 155.963L266.474 5.001 92.157 5 5 155.963l87.158 150.962h174.316l87.158-150.962z" fill="#f5f5f5" fill-rule="nonzero" stroke="#3c3c3c" stroke-width="10"/><path d="M128.415 67.696l-50.207 130.13c32.62 20.804 65.24 20.804 97.86 0l-47.653-130.13z" fill="#087e8b" fill-rule="nonzero"/><path d="M208.765 103.805l-35.814 31.925 2.63 47.905 39.095 27.813 46.118-13.225 18.416-44.303-23.155-42.019-47.29-8.096z" fill="#939fab" fill-rule="nonzero"/><path d="M230.642 193.435c0 24.524-19.881 44.404-44.405 44.404s-44.405-19.88-44.405-44.404c0-24.524 19.881-44.405 44.405-44.405s44.405 19.881 44.405 44.405" fill="#ff5a5f" fill-rule="nonzero"/></svg>