<svg viewBox="0 0 359 312" xmlns="http://www.w3.org/2000/svg" fill-rule="evenodd" clip-rule="evenodd" stroke-linejoin="round" stroke-miterlimit="1.414"><path d="M353.633 155.962L266.475 5H92.157L5 155.963l87.158 150.962h174.316l87.159-150.963z" fill="#f5f5f5" fill-rule="nonzero" stroke="#3c3c3c" stroke-width="10"/><path d="M182.709 212.563l20.303-.095 85.056.095c14.367-.989 25.424-13.228 25.038-27.25-.371-13.489-11.227-24.836-25.038-25.776a28.587 28.587 0 0 0-7.167.205c-18.038 2.833-27.518 22.47-29.289 26.307l-53.707-69.597c-.047-.826-.277-6.7 4.37-11.04 5.35-4.997 12.336-3.453 12.881-3.322l88.128 63.476" fill="#f5f5f5" fill-rule="nonzero"/><path d="M182.709 212.563c8.779-.267 17.56-.583 26.339-.704l26.34-.487c8.78-.18 17.56-.247 26.341-.376l26.341-.287-.13.003a27.723 27.723 0 0 0 7.233-1.69c2.302-.932 4.446-2.212 6.39-3.74 1.964-1.513 3.605-3.406 5.013-5.42.729-.998 1.291-2.095 1.886-3.172.484-1.13 1.009-2.243 1.338-3.429 1.508-4.675 1.415-9.788-.067-14.435-1.565-4.617-4.468-8.821-8.379-11.762-1.941-1.473-4.065-2.728-6.356-3.56a26.456 26.456 0 0 0-7.138-1.565c-4.971-.498-9.838.561-14.258 2.735l-.832.399-.794.482-1.591.958-1.512 1.102c-.506.362-1.01.73-1.474 1.158l-1.426 1.228c-.463.427-.9.887-1.352 1.328-.923.859-1.719 1.862-2.577 2.795a60.563 60.563 0 0 0-8.171 12.969l-1.735 3.727-2.497-3.249-26.783-34.855-26.648-34.956-.422-.553-.021-.635a16.997 16.997 0 0 1 1.344-7.289 15.317 15.317 0 0 1 4.471-5.941c1.925-1.609 4.292-2.657 6.696-3.154 1.206-.25 2.425-.35 3.637-.348 1.231.015 2.379.111 3.683.408l.365.083.301.221 21.847 16.125 21.793 16.2 21.719 16.304 10.855 8.158 10.805 8.227-11.225-7.643-11.177-7.711-22.346-15.433-22.27-15.537-22.216-15.614.666.305c-.819-.17-1.849-.253-2.788-.235-.958.018-1.913.116-2.831.327-1.832.428-3.537 1.225-4.924 2.44a11.155 11.155 0 0 0-3.192 4.431c-.691 1.693-1.027 3.665-.937 5.436l-.442-1.188 27.057 34.641 26.925 34.744-4.231.477c2.316-5.07 5.326-9.768 8.906-14.077.951-1.033 1.832-2.123 2.867-3.088.506-.49.996-.997 1.518-1.473l1.615-1.383c.524-.476 1.1-.897 1.681-1.311l1.737-1.25 1.846-1.106.924-.551.975-.469c5.147-2.544 11.139-3.77 16.831-3.167 2.853.238 5.742.869 8.461 1.901 2.734 1.015 5.249 2.548 7.535 4.327 4.598 3.561 7.99 8.575 9.775 14.095 1.705 5.548 1.721 11.628-.123 17.121-.412 1.39-1.033 2.697-1.628 4.012-.706 1.258-1.383 2.535-2.256 3.685-1.691 2.322-3.653 4.472-5.962 6.186-2.289 1.73-4.806 3.158-7.489 4.178a31.51 31.51 0 0 1-8.37 1.778l-.068.004-.061-.001-26.337-.345c-8.781-.149-17.56-.236-26.339-.435l-52.681-1.074z" fill="#3c3c3c" fill-rule="nonzero"/><path d="M182.709 123.056c1.691-1.035 3.383-1.572 5.073-1.959a24.109 24.109 0 0 1 5.073-.54 23.647 23.647 0 0 1 5.074.533c1.69.386 3.382.924 5.073 1.966-1.691 1.042-3.383 1.581-5.073 1.966a23.649 23.649 0 0 1-5.074.534 24.044 24.044 0 0 1-5.073-.541c-1.69-.386-3.382-.923-5.073-1.959" fill="#3c3c3c" fill-rule="nonzero"/><path d="M182.709 212.563l-20.302-.095-85.056.095c-14.367-.989-25.424-13.228-25.038-27.25.371-13.489 11.227-24.836 25.038-25.776a28.587 28.587 0 0 1 7.167.205c18.038 2.833 27.518 22.47 29.289 26.307l53.707-69.597c.047-.826.277-6.7-4.37-11.04-5.35-4.997-12.336-3.453-12.881-3.322l-88.128 63.476" fill="#f5f5f5" fill-rule="nonzero"/><path d="M182.709 212.563l-52.68 1.074c-8.779.199-17.558.286-26.338.435l-26.338.345-.061.001-.069-.004a31.512 31.512 0 0 1-8.369-1.778c-2.683-1.02-5.2-2.448-7.489-4.178-2.309-1.714-4.271-3.864-5.962-6.186-.873-1.15-1.55-2.427-2.256-3.685-.595-1.315-1.217-2.622-1.628-4.012-1.844-5.493-1.828-11.573-.123-17.121 1.785-5.52 5.177-10.534 9.775-14.095 2.286-1.779 4.801-3.312 7.535-4.327a31.326 31.326 0 0 1 8.461-1.901c5.692-.603 11.684.623 16.831 3.167l.975.469.924.551 1.846 1.106 1.737 1.25c.581.414 1.157.835 1.681 1.311l1.615 1.383c.522.476 1.011.983 1.518 1.473 1.035.965 1.916 2.055 2.867 3.088 3.58 4.309 6.59 9.007 8.906 14.077l-4.231-.477 26.925-34.744 27.057-34.641-.442 1.188c.09-1.771-.246-3.743-.937-5.436a11.155 11.155 0 0 0-3.192-4.431c-1.388-1.215-3.092-2.012-4.924-2.44a13.826 13.826 0 0 0-2.831-.327c-.939-.018-1.969.065-2.788.235l.666-.305-22.216 15.614-22.27 15.537-22.345 15.433-11.178 7.711-11.226 7.643 10.806-8.227 10.855-8.158 21.718-16.304 21.794-16.2 21.847-16.125.301-.221.365-.083c1.304-.297 2.452-.393 3.683-.408a17.738 17.738 0 0 1 3.637.348c2.404.497 4.771 1.545 6.697 3.154a15.324 15.324 0 0 1 4.47 5.941 16.997 16.997 0 0 1 1.344 7.289l-.021.635-.422.553-26.648 34.956-26.783 34.855-2.497 3.249-1.735-3.727a60.563 60.563 0 0 0-8.171-12.969c-.858-.933-1.654-1.936-2.577-2.795-.452-.441-.89-.901-1.352-1.328l-1.426-1.228c-.464-.428-.967-.796-1.475-1.158l-1.511-1.102-1.591-.958-.794-.482-.832-.399c-4.42-2.174-9.288-3.233-14.258-2.735a26.456 26.456 0 0 0-7.138 1.565c-2.291.832-4.415 2.087-6.356 3.56-3.911 2.941-6.814 7.145-8.379 11.762-1.482 4.647-1.575 9.76-.067 14.435.329 1.186.854 2.299 1.338 3.429.595 1.077 1.157 2.174 1.887 3.172 1.407 2.014 3.048 3.907 5.012 5.42 1.944 1.528 4.088 2.808 6.39 3.74a27.714 27.714 0 0 0 7.233 1.69l-.13-.003 26.341.287c8.781.129 17.561.196 26.341.376l26.34.487c8.779.121 17.56.437 26.338.704" fill="#3c3c3c" fill-rule="nonzero"/><path d="M182.709 123.056c-1.69 1.036-3.382 1.573-5.072 1.959a24.054 24.054 0 0 1-5.074.541 23.646 23.646 0 0 1-5.073-.534c-1.691-.385-3.382-.924-5.073-1.966 1.691-1.042 3.382-1.58 5.073-1.966a23.645 23.645 0 0 1 5.073-.533c1.691.003 3.382.174 5.074.54 1.69.387 3.382.924 5.072 1.959" fill="#3c3c3c" fill-rule="nonzero"/><path d="M183.397 110.236h-.021l-3.722 11.189h7.467l-3.724-11.189zm12.085 19.308c.163.488.265.875.306 1.159.04.285-.014.499-.163.64-.15.143-.415.232-.794.265-.38.034-.902.051-1.567.051-.691 0-1.23-.01-1.617-.03-.387-.021-.682-.061-.885-.122-.204-.061-.345-.146-.428-.254a1.399 1.399 0 0 1-.203-.428l-1.77-5.289h-9.887l-1.669 5.146c-.054.191-.125.35-.213.479-.089.129-.231.23-.427.304-.197.076-.475.126-.834.154-.36.026-.831.04-1.414.04-.624 0-1.113-.021-1.465-.061-.353-.041-.597-.139-.733-.295-.135-.156-.182-.377-.142-.661.041-.285.142-.665.305-1.139L180 106.147c.081-.23.176-.417.285-.559.108-.143.281-.251.518-.326.238-.075.567-.122.987-.142.42-.021.976-.031 1.669-.031.799 0 1.437.01 1.912.031.474.02.844.067 1.108.142.265.075.455.187.57.335.116.15.213.353.295.611l8.138 23.336z" fill="#ff5a5f" fill-rule="nonzero"/><path d="M214.306 192.737c.02-.892-.133-1.692-.459-2.403a4.659 4.659 0 0 0-1.46-1.801c-.648-.49-1.48-.875-2.496-1.154-1.017-.281-2.342-.438-3.977-.474l-5.313-.115-.238 10.936 6.471.141c1.249.027 2.302-.064 3.159-.274.856-.209 1.601-.529 2.235-.961a4.765 4.765 0 0 0 1.501-1.633c.366-.657.558-1.41.577-2.262m-1.924-16.514c.017-.773-.104-1.469-.363-2.09a3.812 3.812 0 0 0-1.193-1.556c-.537-.418-1.216-.745-2.041-.982-.824-.235-1.928-.369-3.313-.399l-4.53-.098-.217 9.986 5.007.108c1.294.028 2.33-.083 3.107-.333.779-.251 1.428-.603 1.949-1.059a4.386 4.386 0 0 0 1.176-1.609 5.235 5.235 0 0 0 .418-1.968m11.229 16.449c-.03 1.367-.273 2.6-.728 3.701a9.63 9.63 0 0 1-1.852 2.903 11.127 11.127 0 0 1-2.773 2.14 16.92 16.92 0 0 1-3.524 1.439 24.178 24.178 0 0 1-4.089.789c-1.446.156-3.055.216-4.826.177l-11.717-.254c-.749-.017-1.375-.224-1.877-.621-.503-.397-.745-1.032-.726-1.903l.729-33.524c.018-.872.288-1.495.807-1.871.519-.375 1.154-.555 1.903-.538l11.069.24c2.702.059 4.986.307 6.851.744 1.864.437 3.429 1.071 4.695 1.901 1.266.83 2.226 1.867 2.88 3.11.654 1.243.964 2.697.928 4.361a8.346 8.346 0 0 1-.466 2.622 7.455 7.455 0 0 1-1.241 2.217 8.287 8.287 0 0 1-1.963 1.742c-.772.499-1.65.896-2.633 1.192a12.84 12.84 0 0 1 3.435 1.115 9.664 9.664 0 0 1 2.716 1.977 8.748 8.748 0 0 1 1.797 2.789c.432 1.06.633 2.244.605 3.552" fill="#087e8b" fill-rule="nonzero"/><path d="M172.271 142.581c-.656-1.242-.213-2.803 1.027-3.408 1.238-.611 2.735-.071 3.345 1.205.61 1.275.142 2.784-1.046 3.37-1.191.581-2.661.091-3.326-1.167m-11.828 7.025c-.791-1.157-.523-2.77.655-3.502 1.172-.743 2.717-.369 3.454.841.734 1.205.431 2.758-.681 3.463-1.119.694-2.624.375-3.428-.802m-10.806 8.503c-.977-1.037-.921-2.641.137-3.565 1.047-.938 2.67-.738 3.553.349.901 1.107.78 2.64-.186 3.509-.98.855-2.542.728-3.504-.293m-8.923 10.434c-1.211-.754-1.526-2.335-.7-3.522a2.46 2.46 0 0 1 3.562-.447c1.082.886 1.346 2.429.589 3.443-.716 1.033-2.262 1.266-3.451.526m-4.327 12.867c-.708.015-1.369-.263-1.799-.771a2.486 2.486 0 0 1-.577-2.014 2.423 2.423 0 0 1 1.088-1.763c.556-.369 1.238-.476 1.927-.289a2.994 2.994 0 0 1 1.6 1.106c.362.5.516 1.069.458 1.639-.101.572-.394 1.053-.877 1.432-.495.376-1.115.645-1.82.66m7.039 11.002c-.341.625-.895 1.055-1.547 1.191a2.429 2.429 0 0 1-2.038-.459 2.49 2.49 0 0 1-1.048-1.854c-.058-.672.215-1.323.738-1.81.512-.475 1.155-.722 1.762-.808.599-.072 1.132.043 1.604.365.429.352.738.848.84 1.458a3.037 3.037 0 0 1-.311 1.917m13.146 3.833c-.189 1.394-1.474 2.396-2.871 2.132-1.4-.239-2.27-1.639-1.945-3.002.329-1.388 1.587-2.251 2.854-2.037 1.261.239 2.153 1.499 1.962 2.907m13.727.879c.001 1.413-1.118 2.563-2.502 2.531-1.385-.028-2.457-1.225-2.393-2.634.065-1.416 1.182-2.511 2.501-2.485 1.32.03 2.393 1.174 2.394 2.588m13.748-.583c.124 1.406-.888 2.646-2.261 2.742-1.373.096-2.548-.988-2.622-2.401-.075-1.411.94-2.614 2.264-2.706 1.324-.093 2.495.955 2.619 2.365" fill="#231f20"/></svg>