<?xml version="1.0" encoding="UTF-8" standalone="no"?><!DOCTYPE svg PUBLIC "-//W3C//DTD SVG 1.1//EN" "http://www.w3.org/Graphics/SVG/1.1/DTD/svg11.dtd"><svg width="100%" height="100%" viewBox="0 0 359 312" version="1.1" xmlns="http://www.w3.org/2000/svg" xmlns:xlink="http://www.w3.org/1999/xlink" xml:space="preserve" style="fill-rule:evenodd;clip-rule:evenodd;stroke-linejoin:round;stroke-miterlimit:1.41421;"><path d="M353.633,155.962l-87.158,-150.962l-174.318,0l-87.157,150.963l87.158,150.962l174.316,0l87.159,-150.963Z" style="fill:#f5f5f5;fill-rule:nonzero;stroke:#3c3c3c;stroke-width:10px;"/><path d="M182.709,212.563l20.303,-0.095c28.352,0.032 56.704,0.064 85.056,0.095c14.367,-0.989 25.424,-13.228 25.038,-27.25c-0.371,-13.489 -11.227,-24.836 -25.038,-25.776c-2.668,-0.254 -5.062,-0.125 -7.167,0.205c-18.038,2.833 -27.518,22.47 -29.289,26.307l-53.707,-69.597c-0.047,-0.826 -0.277,-6.7 4.37,-11.04c5.35,-4.997 12.336,-3.453 12.881,-3.322c29.376,21.159 58.752,42.318 88.128,63.476" style="fill:#f5f5f5;fill-rule:nonzero;"/><path d="M182.709,212.563c8.779,-0.267 17.56,-0.583 26.339,-0.704l26.34,-0.487c8.78,-0.18 17.56,-0.247 26.341,-0.376l26.341,-0.287l-0.13,0.003c2.482,-0.243 4.915,-0.801 7.233,-1.69c2.302,-0.932 4.446,-2.212 6.39,-3.74c1.964,-1.513 3.605,-3.406 5.013,-5.42c0.729,-0.998 1.291,-2.095 1.886,-3.172c0.484,-1.13 1.009,-2.243 1.338,-3.429c1.508,-4.675 1.415,-9.788 -0.067,-14.435c-1.565,-4.617 -4.468,-8.821 -8.379,-11.762c-1.941,-1.473 -4.065,-2.728 -6.356,-3.56c-2.287,-0.849 -4.659,-1.366 -7.138,-1.565c-4.971,-0.498 -9.838,0.561 -14.258,2.735l-0.832,0.399l-0.794,0.482l-1.591,0.958l-1.512,1.102c-0.506,0.362 -1.01,0.73 -1.474,1.158l-1.426,1.228c-0.463,0.427 -0.9,0.887 -1.352,1.328c-0.923,0.859 -1.719,1.862 -2.577,2.795c-3.243,3.922 -6.009,8.327 -8.171,12.969l-1.735,3.727l-2.497,-3.249l-26.783,-34.855l-26.648,-34.956l-0.422,-0.553l-0.021,-0.635c-0.084,-2.568 0.366,-4.975 1.344,-7.289c0.971,-2.296 2.523,-4.378 4.471,-5.941c1.925,-1.609 4.292,-2.657 6.696,-3.154c1.206,-0.25 2.425,-0.35 3.637,-0.348c1.231,0.015 2.379,0.111 3.683,0.408l0.365,0.083l0.301,0.221l21.847,16.125l21.793,16.2l21.719,16.304l10.855,8.158l10.805,8.227l-11.225,-7.643l-11.177,-7.711l-22.346,-15.433l-22.27,-15.537l-22.216,-15.614l0.666,0.305c-0.819,-0.17 -1.849,-0.253 -2.788,-0.235c-0.958,0.018 -1.913,0.116 -2.831,0.327c-1.832,0.428 -3.537,1.225 -4.924,2.44c-1.417,1.186 -2.507,2.713 -3.192,4.431c-0.691,1.693 -1.027,3.665 -0.937,5.436l-0.442,-1.188l27.057,34.641l26.925,34.744l-4.231,0.477c2.316,-5.07 5.326,-9.768 8.906,-14.077c0.951,-1.033 1.832,-2.123 2.867,-3.088c0.506,-0.49 0.996,-0.997 1.518,-1.473l1.615,-1.383c0.524,-0.476 1.1,-0.897 1.681,-1.311l1.737,-1.25l1.846,-1.106l0.924,-0.551l0.975,-0.469c5.147,-2.544 11.139,-3.77 16.831,-3.167c2.853,0.238 5.742,0.869 8.461,1.901c2.734,1.015 5.249,2.548 7.535,4.327c4.598,3.561 7.99,8.575 9.775,14.095c1.705,5.548 1.721,11.628 -0.123,17.121c-0.412,1.39 -1.033,2.697 -1.628,4.012c-0.706,1.258 -1.383,2.535 -2.256,3.685c-1.691,2.322 -3.653,4.472 -5.962,6.186c-2.289,1.73 -4.806,3.158 -7.489,4.178c-2.698,0.977 -5.519,1.564 -8.37,1.778l-0.068,0.004l-0.061,-0.001l-26.337,-0.345c-8.781,-0.149 -17.56,-0.236 -26.339,-0.435l-52.681,-1.074Z" style="fill:#3c3c3c;fill-rule:nonzero;"/><path d="M182.709,123.056c1.691,-1.035 3.383,-1.572 5.073,-1.959c1.692,-0.366 3.382,-0.537 5.073,-0.54c1.692,-0.004 3.382,0.167 5.074,0.533c1.69,0.386 3.382,0.924 5.073,1.966c-1.691,1.042 -3.383,1.581 -5.073,1.966c-1.692,0.366 -3.382,0.538 -5.074,0.534c-1.691,-0.003 -3.381,-0.174 -5.073,-0.541c-1.69,-0.386 -3.382,-0.923 -5.073,-1.959" style="fill:#3c3c3c;fill-rule:nonzero;"/><path d="M182.709,212.563l-20.302,-0.095c-28.352,0.032 -56.704,0.064 -85.056,0.095c-14.367,-0.989 -25.424,-13.228 -25.038,-27.25c0.371,-13.489 11.227,-24.836 25.038,-25.776c2.668,-0.254 5.062,-0.125 7.167,0.205c18.038,2.833 27.518,22.47 29.289,26.307l53.707,-69.597c0.047,-0.826 0.277,-6.7 -4.37,-11.04c-5.35,-4.997 -12.336,-3.453 -12.881,-3.322c-29.376,21.159 -58.752,42.318 -88.128,63.476" style="fill:#f5f5f5;fill-rule:nonzero;"/><path d="M182.709,212.563l-52.68,1.074c-8.779,0.199 -17.558,0.286 -26.338,0.435l-26.338,0.345l-0.061,0.001l-0.069,-0.004c-2.85,-0.214 -5.671,-0.801 -8.369,-1.778c-2.683,-1.02 -5.2,-2.448 -7.489,-4.178c-2.309,-1.714 -4.271,-3.864 -5.962,-6.186c-0.873,-1.15 -1.55,-2.427 -2.256,-3.685c-0.595,-1.315 -1.217,-2.622 -1.628,-4.012c-1.844,-5.493 -1.828,-11.573 -0.123,-17.121c1.785,-5.52 5.177,-10.534 9.775,-14.095c2.286,-1.779 4.801,-3.312 7.535,-4.327c2.719,-1.032 5.608,-1.663 8.461,-1.901c5.692,-0.603 11.684,0.623 16.831,3.167l0.975,0.469l0.924,0.551l1.846,1.106l1.737,1.25c0.581,0.414 1.157,0.835 1.681,1.311l1.615,1.383c0.522,0.476 1.011,0.983 1.518,1.473c1.035,0.965 1.916,2.055 2.867,3.088c3.58,4.309 6.59,9.007 8.906,14.077l-4.231,-0.477l26.925,-34.744l27.057,-34.641l-0.442,1.188c0.09,-1.771 -0.246,-3.743 -0.937,-5.436c-0.685,-1.718 -1.775,-3.245 -3.192,-4.431c-1.388,-1.215 -3.092,-2.012 -4.924,-2.44c-0.918,-0.211 -1.873,-0.309 -2.831,-0.327c-0.939,-0.018 -1.969,0.065 -2.788,0.235l0.666,-0.305l-22.216,15.614l-22.27,15.537l-22.345,15.433l-11.178,7.711l-11.226,7.643l10.806,-8.227l10.855,-8.158l21.718,-16.304l21.794,-16.2l21.847,-16.125l0.301,-0.221l0.365,-0.083c1.304,-0.297 2.452,-0.393 3.683,-0.408c1.212,-0.002 2.432,0.098 3.637,0.348c2.404,0.497 4.771,1.545 6.697,3.154c1.947,1.563 3.499,3.645 4.47,5.941c0.978,2.314 1.428,4.721 1.344,7.289l-0.021,0.635l-0.422,0.553l-26.648,34.956l-26.783,34.855l-2.497,3.249l-1.735,-3.727c-2.162,-4.642 -4.928,-9.047 -8.171,-12.969c-0.858,-0.933 -1.654,-1.936 -2.577,-2.795c-0.452,-0.441 -0.89,-0.901 -1.352,-1.328l-1.426,-1.228c-0.464,-0.428 -0.967,-0.796 -1.475,-1.158l-1.511,-1.102l-1.591,-0.958l-0.794,-0.482l-0.832,-0.399c-4.42,-2.174 -9.288,-3.233 -14.258,-2.735c-2.479,0.199 -4.851,0.716 -7.138,1.565c-2.291,0.832 -4.415,2.087 -6.356,3.56c-3.911,2.941 -6.814,7.145 -8.379,11.762c-1.482,4.647 -1.575,9.76 -0.067,14.435c0.329,1.186 0.854,2.299 1.338,3.429c0.595,1.077 1.157,2.174 1.887,3.172c1.407,2.014 3.048,3.907 5.012,5.42c1.944,1.528 4.088,2.808 6.39,3.74c2.317,0.889 4.751,1.447 7.233,1.69l-0.13,-0.003l26.341,0.287c8.781,0.129 17.561,0.196 26.341,0.376l26.34,0.487c8.779,0.121 17.56,0.437 26.338,0.704" style="fill:#3c3c3c;fill-rule:nonzero;"/><path d="M182.709,123.056c-1.69,1.036 -3.382,1.573 -5.072,1.959c-1.692,0.367 -3.383,0.538 -5.074,0.541c-1.691,0.004 -3.381,-0.168 -5.073,-0.534c-1.691,-0.385 -3.382,-0.924 -5.073,-1.966c1.691,-1.042 3.382,-1.58 5.073,-1.966c1.692,-0.366 3.382,-0.537 5.073,-0.533c1.691,0.003 3.382,0.174 5.074,0.54c1.69,0.387 3.382,0.924 5.072,1.959" style="fill:#3c3c3c;fill-rule:nonzero;"/><path d="M183.397,110.236l-0.021,0l-3.722,11.189l7.467,0l-3.724,-11.189Zm12.085,19.308c0.163,0.488 0.265,0.875 0.306,1.159c0.04,0.285 -0.014,0.499 -0.163,0.64c-0.15,0.143 -0.415,0.232 -0.794,0.265c-0.38,0.034 -0.902,0.051 -1.567,0.051c-0.691,0 -1.23,-0.01 -1.617,-0.03c-0.387,-0.021 -0.682,-0.061 -0.885,-0.122c-0.204,-0.061 -0.345,-0.146 -0.428,-0.254c-0.081,-0.109 -0.149,-0.251 -0.203,-0.428l-1.77,-5.289l-9.887,0l-1.669,5.146c-0.054,0.191 -0.125,0.35 -0.213,0.479c-0.089,0.129 -0.231,0.23 -0.427,0.304c-0.197,0.076 -0.475,0.126 -0.834,0.154c-0.36,0.026 -0.831,0.04 -1.414,0.04c-0.624,0 -1.113,-0.021 -1.465,-0.061c-0.353,-0.041 -0.597,-0.139 -0.733,-0.295c-0.135,-0.156 -0.182,-0.377 -0.142,-0.661c0.041,-0.285 0.142,-0.665 0.305,-1.139l8.118,-23.356c0.081,-0.23 0.176,-0.417 0.285,-0.559c0.108,-0.143 0.281,-0.251 0.518,-0.326c0.238,-0.075 0.567,-0.122 0.987,-0.142c0.42,-0.021 0.976,-0.031 1.669,-0.031c0.799,0 1.437,0.01 1.912,0.031c0.474,0.02 0.844,0.067 1.108,0.142c0.265,0.075 0.455,0.187 0.57,0.335c0.116,0.15 0.213,0.353 0.295,0.611l8.138,23.336Z" style="fill:#ff5a5f;fill-rule:nonzero;"/><path d="M214.306,192.737c0.02,-0.892 -0.133,-1.692 -0.459,-2.403c-0.325,-0.711 -0.812,-1.312 -1.46,-1.801c-0.648,-0.49 -1.48,-0.875 -2.496,-1.154c-1.017,-0.281 -2.342,-0.438 -3.977,-0.474l-5.313,-0.115l-0.238,10.936l6.471,0.141c1.249,0.027 2.302,-0.064 3.159,-0.274c0.856,-0.209 1.601,-0.529 2.235,-0.961c0.635,-0.433 1.135,-0.977 1.501,-1.633c0.366,-0.657 0.558,-1.41 0.577,-2.262m-1.924,-16.514c0.017,-0.773 -0.104,-1.469 -0.363,-2.09c-0.26,-0.62 -0.657,-1.138 -1.193,-1.556c-0.537,-0.418 -1.216,-0.745 -2.041,-0.982c-0.824,-0.235 -1.928,-0.369 -3.313,-0.399l-4.53,-0.098l-0.217,9.986l5.007,0.108c1.294,0.028 2.33,-0.083 3.107,-0.333c0.779,-0.251 1.428,-0.603 1.949,-1.059c0.521,-0.454 0.914,-0.991 1.176,-1.609c0.264,-0.619 0.404,-1.274 0.418,-1.968m11.229,16.449c-0.03,1.367 -0.273,2.6 -0.728,3.701c-0.456,1.099 -1.073,2.067 -1.852,2.903c-0.78,0.835 -1.704,1.549 -2.773,2.14c-1.069,0.591 -2.244,1.071 -3.524,1.439c-1.281,0.369 -2.643,0.632 -4.089,0.789c-1.446,0.156 -3.055,0.216 -4.826,0.177l-11.717,-0.254c-0.749,-0.017 -1.375,-0.224 -1.877,-0.621c-0.503,-0.397 -0.745,-1.032 -0.726,-1.903l0.729,-33.524c0.018,-0.872 0.288,-1.495 0.807,-1.871c0.519,-0.375 1.154,-0.555 1.903,-0.538l11.069,0.24c2.702,0.059 4.986,0.307 6.851,0.744c1.864,0.437 3.429,1.071 4.695,1.901c1.266,0.83 2.226,1.867 2.88,3.11c0.654,1.243 0.964,2.697 0.928,4.361c-0.021,0.932 -0.176,1.805 -0.466,2.622c-0.29,0.816 -0.704,1.555 -1.241,2.217c-0.537,0.663 -1.192,1.244 -1.963,1.742c-0.772,0.499 -1.65,0.896 -2.633,1.192c1.244,0.225 2.39,0.597 3.435,1.115c1.044,0.518 1.951,1.177 2.716,1.977c0.767,0.8 1.366,1.729 1.797,2.789c0.432,1.06 0.633,2.244 0.605,3.552" style="fill:#087e8b;fill-rule:nonzero;"/><path d="M172.271,142.581c-0.656,-1.242 -0.213,-2.803 1.027,-3.408c1.238,-0.611 2.735,-0.071 3.345,1.205c0.61,1.275 0.142,2.784 -1.046,3.37c-1.191,0.581 -2.661,0.091 -3.326,-1.167" style="fill:#231f20;"/><path d="M160.443,149.606c-0.791,-1.157 -0.523,-2.77 0.655,-3.502c1.172,-0.743 2.717,-0.369 3.454,0.841c0.734,1.205 0.431,2.758 -0.681,3.463c-1.119,0.694 -2.624,0.375 -3.428,-0.802" style="fill:#231f20;"/><path d="M149.637,158.109c-0.977,-1.037 -0.921,-2.641 0.137,-3.565c1.047,-0.938 2.67,-0.738 3.553,0.349c0.901,1.107 0.78,2.64 -0.186,3.509c-0.98,0.855 -2.542,0.728 -3.504,-0.293" style="fill:#231f20;"/><path d="M140.714,168.543c-1.211,-0.754 -1.526,-2.335 -0.7,-3.522c0.859,-1.155 2.456,-1.351 3.562,-0.447c1.082,0.886 1.346,2.429 0.589,3.443c-0.716,1.033 -2.262,1.266 -3.451,0.526" style="fill:#231f20;"/><path d="M136.387,181.41c-0.708,0.015 -1.369,-0.263 -1.799,-0.771c-0.44,-0.506 -0.705,-1.252 -0.577,-2.014c0.086,-0.778 0.529,-1.398 1.088,-1.763c0.556,-0.369 1.238,-0.476 1.927,-0.289c0.675,0.184 1.233,0.609 1.6,1.106c0.362,0.5 0.516,1.069 0.458,1.639c-0.101,0.572 -0.394,1.053 -0.877,1.432c-0.495,0.376 -1.115,0.645 -1.82,0.66" style="fill:#231f20;"/><path d="M143.426,192.412c-0.341,0.625 -0.895,1.055 -1.547,1.191c-0.649,0.142 -1.412,0.038 -2.038,-0.459c-0.644,-0.448 -1.003,-1.171 -1.048,-1.854c-0.058,-0.672 0.215,-1.323 0.738,-1.81c0.512,-0.475 1.155,-0.722 1.762,-0.808c0.599,-0.072 1.132,0.043 1.604,0.365c0.429,0.352 0.738,0.848 0.84,1.458c0.096,0.612 0.024,1.301 -0.311,1.917" style="fill:#231f20;"/><path d="M156.572,196.245c-0.189,1.394 -1.474,2.396 -2.871,2.132c-1.4,-0.239 -2.27,-1.639 -1.945,-3.002c0.329,-1.388 1.587,-2.251 2.854,-2.037c1.261,0.239 2.153,1.499 1.962,2.907" style="fill:#231f20;"/><path d="M170.299,197.124c0.001,1.413 -1.118,2.563 -2.502,2.531c-1.385,-0.028 -2.457,-1.225 -2.393,-2.634c0.065,-1.416 1.182,-2.511 2.501,-2.485c1.32,0.03 2.393,1.174 2.394,2.588" style="fill:#231f20;"/><path d="M184.047,196.541c0.124,1.406 -0.888,2.646 -2.261,2.742c-1.373,0.096 -2.548,-0.988 -2.622,-2.401c-0.075,-1.411 0.94,-2.614 2.264,-2.706c1.324,-0.093 2.495,0.955 2.619,2.365" style="fill:#231f20;"/></svg>