<?xml version="1.0" encoding="UTF-8" standalone="no"?><!DOCTYPE svg PUBLIC "-//W3C//DTD SVG 1.1//EN" "http://www.w3.org/Graphics/SVG/1.1/DTD/svg11.dtd"><svg width="100%" height="100%" viewBox="0 0 359 312" version="1.1" xmlns="http://www.w3.org/2000/svg" xmlns:xlink="http://www.w3.org/1999/xlink" xml:space="preserve" style="fill-rule:evenodd;clip-rule:evenodd;stroke-linejoin:round;stroke-miterlimit:1.41421;"><path d="M353.632,155.963l-87.158,-150.962l-174.317,-0.001l-87.157,150.963l87.158,150.962l174.316,0l87.158,-150.962Z" style="fill:#f5f5f5;fill-rule:nonzero;stroke:#3c3c3c;stroke-width:10px;"/><rect x="131.647" y="79.65" width="95.461" height="155.491" style="fill:#939fab;fill-rule:nonzero;"/><path d="M216.229,114.697l14.737,0l-14.737,0Z" style="fill:#3c3c3c;fill-rule:nonzero;"/><path d="M230.966,115.048c-0.614,1.24 -1.229,1.996 -1.842,2.375c-0.307,0.202 -0.615,0.334 -0.921,0.395c-0.307,0.079 -0.614,0.029 -0.922,-0.201c-0.613,-0.456 -1.228,-1.577 -1.841,-1.793c-0.615,-0.254 -1.229,0.137 -1.843,0.79c-0.307,0.294 -0.614,0.677 -0.921,0.893c-0.307,0.261 -0.614,0.362 -0.921,0.499c-0.614,0.269 -1.228,0.55 -1.842,0.433c-0.614,-0.119 -1.228,-0.446 -1.842,-0.985c-0.614,-0.518 -1.228,-1.268 -1.842,-2.406l0,-0.7c0.614,-1.138 1.228,-1.889 1.842,-2.406c0.614,-0.54 1.228,-0.867 1.842,-0.985c0.614,-0.117 1.228,0.164 1.842,0.433c0.307,0.137 0.614,0.237 0.921,0.499c0.307,0.216 0.614,0.598 0.921,0.892c0.614,0.653 1.228,1.043 1.843,0.79c0.613,-0.216 1.228,-1.337 1.841,-1.793c0.308,-0.23 0.615,-0.28 0.922,-0.201c0.306,0.061 0.614,0.194 0.921,0.395c0.613,0.38 1.228,1.135 1.842,2.376l0,0.7Z" style="fill:#3c3c3c;fill-rule:nonzero;"/><path d="M230.966,136.396c-0.614,1.241 -1.229,1.996 -1.842,2.376c-0.307,0.201 -0.615,0.334 -0.921,0.395c-0.307,0.079 -0.614,0.029 -0.922,-0.202c-0.613,-0.455 -1.228,-1.576 -1.841,-1.793c-0.615,-0.253 -1.229,0.138 -1.843,0.79c-0.307,0.294 -0.614,0.677 -0.921,0.893c-0.307,0.262 -0.614,0.362 -0.921,0.499c-0.614,0.27 -1.228,0.55 -1.842,0.433c-0.614,-0.119 -1.228,-0.446 -1.842,-0.985c-0.614,-0.517 -1.228,-1.268 -1.842,-2.406l0,-0.7c0.614,-1.137 1.228,-1.888 1.842,-2.406c0.614,-0.54 1.228,-0.866 1.842,-0.985c0.614,-0.117 1.228,0.164 1.842,0.433c0.307,0.137 0.614,0.238 0.921,0.499c0.307,0.216 0.614,0.598 0.921,0.892c0.614,0.654 1.228,1.044 1.843,0.79c0.613,-0.215 1.228,-1.336 1.841,-1.793c0.308,-0.229 0.615,-0.279 0.922,-0.2c0.306,0.061 0.614,0.193 0.921,0.395c0.613,0.379 1.228,1.135 1.842,2.375l0,0.7Z" style="fill:#3c3c3c;fill-rule:nonzero;"/><path d="M230.966,157.746c-0.614,1.24 -1.229,1.996 -1.842,2.375c-0.307,0.201 -0.615,0.334 -0.921,0.395c-0.307,0.079 -0.614,0.029 -0.922,-0.202c-0.613,-0.455 -1.228,-1.576 -1.841,-1.793c-0.615,-0.253 -1.229,0.138 -1.843,0.79c-0.307,0.295 -0.614,0.677 -0.921,0.894c-0.307,0.261 -0.614,0.362 -0.921,0.499c-0.614,0.269 -1.228,0.55 -1.842,0.432c-0.614,-0.119 -1.228,-0.446 -1.842,-0.984c-0.614,-0.518 -1.228,-1.269 -1.842,-2.406l0,-0.7c0.614,-1.138 1.228,-1.889 1.842,-2.406c0.614,-0.54 1.228,-0.867 1.842,-0.985c0.614,-0.118 1.228,0.163 1.842,0.433c0.307,0.137 0.614,0.237 0.921,0.499c0.307,0.216 0.614,0.597 0.921,0.892c0.614,0.653 1.228,1.043 1.843,0.79c0.613,-0.216 1.228,-1.337 1.841,-1.793c0.308,-0.23 0.615,-0.28 0.922,-0.201c0.306,0.061 0.614,0.194 0.921,0.395c0.613,0.379 1.228,1.135 1.842,2.376l0,0.7Z" style="fill:#3c3c3c;fill-rule:nonzero;"/><path d="M230.966,179.095c-0.614,1.24 -1.229,1.996 -1.842,2.376c-0.307,0.201 -0.615,0.333 -0.921,0.395c-0.307,0.078 -0.614,0.028 -0.922,-0.202c-0.613,-0.455 -1.228,-1.576 -1.841,-1.793c-0.615,-0.253 -1.229,0.138 -1.843,0.79c-0.307,0.294 -0.614,0.677 -0.921,0.893c-0.307,0.262 -0.614,0.362 -0.921,0.499c-0.614,0.269 -1.228,0.55 -1.842,0.433c-0.614,-0.119 -1.228,-0.446 -1.842,-0.985c-0.614,-0.517 -1.228,-1.268 -1.842,-2.406l0,-0.7c0.614,-1.138 1.228,-1.888 1.842,-2.406c0.614,-0.54 1.228,-0.867 1.842,-0.985c0.614,-0.117 1.228,0.164 1.842,0.433c0.307,0.137 0.614,0.237 0.921,0.499c0.307,0.216 0.614,0.598 0.921,0.892c0.614,0.654 1.228,1.044 1.843,0.79c0.613,-0.215 1.228,-1.337 1.841,-1.793c0.308,-0.229 0.615,-0.279 0.922,-0.201c0.306,0.062 0.614,0.194 0.921,0.395c0.613,0.38 1.228,1.136 1.842,2.376l0,0.7Z" style="fill:#3c3c3c;fill-rule:nonzero;"/><path d="M230.966,200.443c-0.614,1.241 -1.229,1.997 -1.842,2.376c-0.307,0.201 -0.615,0.334 -0.921,0.395c-0.307,0.079 -0.614,0.029 -0.922,-0.202c-0.613,-0.455 -1.228,-1.576 -1.841,-1.793c-0.615,-0.253 -1.229,0.138 -1.843,0.79c-0.307,0.295 -0.614,0.677 -0.921,0.893c-0.307,0.262 -0.614,0.362 -0.921,0.5c-0.614,0.269 -1.228,0.55 -1.842,0.432c-0.614,-0.119 -1.228,-0.446 -1.842,-0.985c-0.614,-0.517 -1.228,-1.268 -1.842,-2.406l0,-0.699c0.614,-1.138 1.228,-1.889 1.842,-2.407c0.614,-0.539 1.228,-0.866 1.842,-0.984c0.614,-0.118 1.228,0.163 1.842,0.432c0.307,0.137 0.614,0.238 0.921,0.499c0.307,0.217 0.614,0.598 0.921,0.893c0.614,0.653 1.228,1.043 1.843,0.79c0.613,-0.216 1.228,-1.337 1.841,-1.793c0.308,-0.23 0.615,-0.28 0.922,-0.201c0.306,0.061 0.614,0.194 0.921,0.395c0.613,0.379 1.228,1.135 1.842,2.376l0,0.699Z" style="fill:#3c3c3c;fill-rule:nonzero;"/><path d="M159.603,203.144c18.669,31.335 38.898,53.701 45.184,49.956c6.285,-3.745 -3.753,-32.183 -22.422,-63.518c-18.669,-31.334 -38.898,-53.701 -45.184,-49.956c-6.285,3.745 3.754,32.183 22.422,63.518" style="fill:#3c3c3c;fill-rule:nonzero;"/><path d="M100.924,163.239c12.221,20.513 38.757,27.234 59.271,15.013c20.512,-12.221 27.234,-38.757 15.013,-59.27c-12.221,-20.513 -38.758,-27.235 -59.27,-15.014c-20.513,12.221 -27.235,38.757 -15.014,59.271" style="fill:#087e8b;fill-rule:nonzero;"/><path d="M109.093,158.372c9.533,16.001 30.233,21.245 46.234,11.712c16.002,-9.534 21.245,-30.233 11.712,-46.235c-9.533,-16.001 -30.233,-21.245 -46.235,-11.711c-16.001,9.533 -21.244,30.233 -11.711,46.234" style="fill:#f5f5f5;fill-rule:nonzero;"/><path d="M159.745,128.652c-3.613,1.243 -7.226,1.888 -10.839,2.352c-3.614,0.439 -7.227,0.644 -10.84,0.647c-3.613,0.005 -7.226,-0.2 -10.839,-0.64c-3.613,-0.462 -7.227,-1.108 -10.84,-2.359c3.613,-1.25 7.227,-1.896 10.84,-2.358c3.613,-0.44 7.226,-0.646 10.839,-0.641c3.613,0.004 7.226,0.209 10.84,0.648c3.613,0.464 7.226,1.109 10.839,2.351" style="fill:#ff5a5f;fill-rule:nonzero;"/><path d="M159.745,142.044c-3.613,1.243 -7.226,1.888 -10.839,2.352c-3.614,0.439 -7.227,0.644 -10.84,0.647c-3.613,0.005 -7.226,-0.2 -10.839,-0.64c-3.613,-0.462 -7.227,-1.108 -10.84,-2.359c3.613,-1.25 7.227,-1.896 10.84,-2.358c3.613,-0.44 7.226,-0.646 10.839,-0.641c3.613,0.004 7.226,0.209 10.84,0.648c3.613,0.464 7.226,1.109 10.839,2.351" style="fill:#ff5a5f;fill-rule:nonzero;"/><path d="M159.745,153.568c-3.613,1.242 -7.226,1.887 -10.839,2.351c-3.614,0.44 -7.227,0.644 -10.84,0.648c-3.613,0.005 -7.226,-0.2 -10.839,-0.641c-3.613,-0.462 -7.227,-1.108 -10.84,-2.358c3.613,-1.25 7.227,-1.897 10.84,-2.359c3.613,-0.44 7.226,-0.645 10.839,-0.64c3.613,0.003 7.226,0.208 10.84,0.648c3.613,0.464 7.226,1.108 10.839,2.351" style="fill:#ff5a5f;fill-rule:nonzero;"/></svg>