<svg viewBox="0 0 359 312" xmlns="http://www.w3.org/2000/svg" fill-rule="evenodd" clip-rule="evenodd" stroke-linejoin="round" stroke-miterlimit="1.414"><path d="M353.632 155.963L266.474 5.001 92.157 5 5 155.963l87.158 150.962h174.316l87.158-150.962z" fill="#f5f5f5" fill-rule="nonzero" stroke="#3c3c3c" stroke-width="10"/><path fill="#939fab" fill-rule="nonzero" d="M131.647 79.65h95.461v155.491h-95.461z"/><path d="M216.229 114.697h14.737-14.737zm14.737.351c-.614 1.24-1.229 1.996-1.842 2.375a2.61 2.61 0 0 1-.921.395c-.307.079-.614.029-.922-.201-.613-.456-1.228-1.577-1.841-1.793-.615-.254-1.229.137-1.843.79-.307.294-.614.677-.921.893-.307.261-.614.362-.921.499-.614.269-1.228.55-1.842.433-.614-.119-1.228-.446-1.842-.985-.614-.518-1.228-1.268-1.842-2.406v-.7c.614-1.138 1.228-1.889 1.842-2.406.614-.54 1.228-.867 1.842-.985.614-.117 1.228.164 1.842.433.307.137.614.237.921.499.307.216.614.598.921.892.614.653 1.228 1.043 1.843.79.613-.216 1.228-1.337 1.841-1.793.308-.23.615-.28.922-.201.306.061.614.194.921.395.613.38 1.228 1.135 1.842 2.376v.7zm0 21.348c-.614 1.241-1.229 1.996-1.842 2.376a2.63 2.63 0 0 1-.921.395c-.307.079-.614.029-.922-.202-.613-.455-1.228-1.576-1.841-1.793-.615-.253-1.229.138-1.843.79-.307.294-.614.677-.921.893-.307.262-.614.362-.921.499-.614.27-1.228.55-1.842.433-.614-.119-1.228-.446-1.842-.985-.614-.517-1.228-1.268-1.842-2.406v-.7c.614-1.137 1.228-1.888 1.842-2.406.614-.54 1.228-.866 1.842-.985.614-.117 1.228.164 1.842.433.307.137.614.238.921.499.307.216.614.598.921.892.614.654 1.228 1.044 1.843.79.613-.215 1.228-1.336 1.841-1.793.308-.229.615-.279.922-.2.306.061.614.193.921.395.613.379 1.228 1.135 1.842 2.375v.7zm0 21.35c-.614 1.24-1.229 1.996-1.842 2.375a2.63 2.63 0 0 1-.921.395c-.307.079-.614.029-.922-.202-.613-.455-1.228-1.576-1.841-1.793-.615-.253-1.229.138-1.843.79-.307.295-.614.677-.921.894-.307.261-.614.362-.921.499-.614.269-1.228.55-1.842.432-.614-.119-1.228-.446-1.842-.984-.614-.518-1.228-1.269-1.842-2.406v-.7c.614-1.138 1.228-1.889 1.842-2.406.614-.54 1.228-.867 1.842-.985.614-.118 1.228.163 1.842.433.307.137.614.237.921.499.307.216.614.597.921.892.614.653 1.228 1.043 1.843.79.613-.216 1.228-1.337 1.841-1.793.308-.23.615-.28.922-.201.306.061.614.194.921.395.613.379 1.228 1.135 1.842 2.376v.7zm0 21.349c-.614 1.24-1.229 1.996-1.842 2.376a2.648 2.648 0 0 1-.921.395c-.307.078-.614.028-.922-.202-.613-.455-1.228-1.576-1.841-1.793-.615-.253-1.229.138-1.843.79-.307.294-.614.677-.921.893-.307.262-.614.362-.921.499-.614.269-1.228.55-1.842.433-.614-.119-1.228-.446-1.842-.985-.614-.517-1.228-1.268-1.842-2.406v-.7c.614-1.138 1.228-1.888 1.842-2.406.614-.54 1.228-.867 1.842-.985.614-.117 1.228.164 1.842.433.307.137.614.237.921.499.307.216.614.598.921.892.614.654 1.228 1.044 1.843.79.613-.215 1.228-1.337 1.841-1.793.308-.229.615-.279.922-.201.306.062.614.194.921.395.613.38 1.228 1.136 1.842 2.376v.7zm0 21.348c-.614 1.241-1.229 1.997-1.842 2.376a2.63 2.63 0 0 1-.921.395c-.307.079-.614.029-.922-.202-.613-.455-1.228-1.576-1.841-1.793-.615-.253-1.229.138-1.843.79-.307.295-.614.677-.921.893-.307.262-.614.362-.921.5-.614.269-1.228.55-1.842.432-.614-.119-1.228-.446-1.842-.985-.614-.517-1.228-1.268-1.842-2.406v-.699c.614-1.138 1.228-1.889 1.842-2.407.614-.539 1.228-.866 1.842-.984.614-.118 1.228.163 1.842.432.307.137.614.238.921.499.307.217.614.598.921.893.614.653 1.228 1.043 1.843.79.613-.216 1.228-1.337 1.841-1.793.308-.23.615-.28.922-.201.306.061.614.194.921.395.613.379 1.228 1.135 1.842 2.376v.699zm-71.363 2.701c18.669 31.335 38.898 53.701 45.184 49.956 6.285-3.745-3.753-32.183-22.422-63.518-18.669-31.334-38.898-53.701-45.184-49.956-6.285 3.745 3.754 32.183 22.422 63.518" fill="#3c3c3c" fill-rule="nonzero"/><path d="M100.924 163.239c12.221 20.513 38.757 27.234 59.271 15.013 20.512-12.221 27.234-38.757 15.013-59.27-12.221-20.513-38.758-27.235-59.27-15.014-20.513 12.221-27.235 38.757-15.014 59.271" fill="#087e8b" fill-rule="nonzero"/><path d="M109.093 158.372c9.533 16.001 30.233 21.245 46.234 11.712 16.002-9.534 21.245-30.233 11.712-46.235-9.533-16.001-30.233-21.245-46.235-11.711-16.001 9.533-21.244 30.233-11.711 46.234" fill="#f5f5f5" fill-rule="nonzero"/><path d="M159.745 128.652c-3.613 1.243-7.226 1.888-10.839 2.352a90.41 90.41 0 0 1-10.84.647c-3.613.005-7.226-.2-10.839-.64-3.613-.462-7.227-1.108-10.84-2.359 3.613-1.25 7.227-1.896 10.84-2.358a88.548 88.548 0 0 1 10.839-.641 90.62 90.62 0 0 1 10.84.648c3.613.464 7.226 1.109 10.839 2.351m0 13.392c-3.613 1.243-7.226 1.888-10.839 2.352a90.41 90.41 0 0 1-10.84.647c-3.613.005-7.226-.2-10.839-.64-3.613-.462-7.227-1.108-10.84-2.359 3.613-1.25 7.227-1.896 10.84-2.358a88.548 88.548 0 0 1 10.839-.641 90.62 90.62 0 0 1 10.84.648c3.613.464 7.226 1.109 10.839 2.351m0 11.524c-3.613 1.242-7.226 1.887-10.839 2.351-3.614.44-7.227.644-10.84.648a88.35 88.35 0 0 1-10.839-.641c-3.613-.462-7.227-1.108-10.84-2.358 3.613-1.25 7.227-1.897 10.84-2.359a88.547 88.547 0 0 1 10.839-.64c3.613.003 7.226.208 10.84.648 3.613.464 7.226 1.108 10.839 2.351" fill="#ff5a5f" fill-rule="nonzero"/></svg>