<?xml version="1.0" encoding="UTF-8" standalone="no"?><!DOCTYPE svg PUBLIC "-//W3C//DTD SVG 1.1//EN" "http://www.w3.org/Graphics/SVG/1.1/DTD/svg11.dtd"><svg width="100%" height="100%" viewBox="0 0 359 312" version="1.1" xmlns="http://www.w3.org/2000/svg" xmlns:xlink="http://www.w3.org/1999/xlink" xml:space="preserve" style="fill-rule:evenodd;clip-rule:evenodd;stroke-linejoin:round;stroke-miterlimit:1.41421;"><path d="M353.632,155.962l-87.158,-150.962l-174.316,0l-87.158,150.962l87.158,150.962l174.316,0l87.158,-150.962Z" style="fill:#f5f5f5;fill-rule:nonzero;stroke:#3c3c3c;stroke-width:10px;"/><rect x="117.644" y="74.98" width="129.838" height="171.287" style="fill:#939fab;fill-rule:nonzero;"/><path d="M146.908,94.502l0,-26.443l0,26.443Z" style="fill:#3c3c3c;fill-rule:nonzero;"/><path d="M147.259,68.059c1.329,1.102 1.958,2.204 2.376,3.306c0.201,0.55 0.333,1.101 0.395,1.652c0.072,0.551 0.04,1.102 -0.202,1.653c-0.452,1.101 -1.582,2.203 -1.793,3.305c-0.242,1.102 0.12,2.204 0.79,3.306c0.32,0.55 0.665,1.101 0.901,1.652c0.246,0.551 0.358,1.102 0.491,1.653c0.266,1.101 0.547,2.203 0.433,3.305c-0.115,1.102 -0.455,2.204 -0.975,3.306c-0.266,0.55 -0.57,1.101 -0.976,1.652c-0.382,0.551 -0.829,1.102 -1.44,1.653l-0.7,0c-0.611,-0.551 -1.057,-1.102 -1.44,-1.653c-0.405,-0.551 -0.71,-1.102 -0.976,-1.652c-0.52,-1.102 -0.861,-2.204 -0.974,-3.306c-0.115,-1.102 0.166,-2.204 0.432,-3.305c0.134,-0.551 0.245,-1.102 0.491,-1.653c0.236,-0.551 0.581,-1.102 0.901,-1.652c0.67,-1.102 1.032,-2.204 0.79,-3.306c-0.211,-1.102 -1.341,-2.204 -1.793,-3.305c-0.241,-0.551 -0.273,-1.102 -0.201,-1.653c0.061,-0.551 0.193,-1.102 0.394,-1.652c0.419,-1.102 1.048,-2.204 2.376,-3.306l0.7,0Z" style="fill:#3c3c3c;fill-rule:nonzero;"/><path d="M165.086,68.059c1.328,1.102 1.958,2.204 2.375,3.306c0.202,0.55 0.334,1.101 0.395,1.652c0.072,0.551 0.041,1.102 -0.201,1.653c-0.452,1.101 -1.582,2.203 -1.793,3.305c-0.242,1.102 0.12,2.204 0.79,3.306c0.32,0.55 0.665,1.101 0.9,1.652c0.247,0.551 0.359,1.102 0.492,1.653c0.266,1.101 0.547,2.203 0.433,3.305c-0.115,1.102 -0.455,2.204 -0.975,3.306c-0.266,0.55 -0.571,1.101 -0.976,1.652c-0.383,0.551 -0.83,1.102 -1.44,1.653l-0.7,0c-0.611,-0.551 -1.057,-1.102 -1.44,-1.653c-0.406,-0.551 -0.711,-1.102 -0.976,-1.652c-0.52,-1.102 -0.861,-2.204 -0.975,-3.306c-0.114,-1.102 0.167,-2.204 0.433,-3.305c0.133,-0.551 0.245,-1.102 0.491,-1.653c0.236,-0.551 0.581,-1.102 0.9,-1.652c0.671,-1.102 1.033,-2.204 0.79,-3.306c-0.21,-1.102 -1.34,-2.204 -1.793,-3.305c-0.241,-0.551 -0.272,-1.102 -0.2,-1.653c0.06,-0.551 0.193,-1.102 0.394,-1.652c0.418,-1.102 1.048,-2.204 2.376,-3.306l0.7,0Z" style="fill:#3c3c3c;fill-rule:nonzero;"/><path d="M182.913,68.059c1.329,1.102 1.958,2.204 2.376,3.306c0.201,0.55 0.333,1.101 0.395,1.652c0.071,0.551 0.04,1.102 -0.202,1.653c-0.451,1.101 -1.582,2.203 -1.793,3.305c-0.242,1.102 0.12,2.204 0.79,3.306c0.32,0.55 0.665,1.101 0.901,1.652c0.246,0.551 0.358,1.102 0.491,1.653c0.266,1.101 0.547,2.203 0.433,3.305c-0.115,1.102 -0.455,2.204 -0.975,3.306c-0.266,0.55 -0.57,1.101 -0.976,1.652c-0.382,0.551 -0.829,1.102 -1.44,1.653l-0.7,0c-0.611,-0.551 -1.057,-1.102 -1.44,-1.653c-0.405,-0.551 -0.71,-1.102 -0.976,-1.652c-0.52,-1.102 -0.86,-2.204 -0.974,-3.306c-0.115,-1.102 0.166,-2.204 0.432,-3.305c0.134,-0.551 0.245,-1.102 0.491,-1.653c0.236,-0.551 0.581,-1.102 0.901,-1.652c0.67,-1.102 1.032,-2.204 0.79,-3.306c-0.211,-1.102 -1.341,-2.204 -1.793,-3.305c-0.241,-0.551 -0.273,-1.102 -0.201,-1.653c0.061,-0.551 0.193,-1.102 0.394,-1.652c0.419,-1.102 1.048,-2.204 2.376,-3.306l0.7,0Z" style="fill:#3c3c3c;fill-rule:nonzero;"/><path d="M200.74,68.059c1.328,1.102 1.958,2.204 2.375,3.306c0.202,0.55 0.334,1.101 0.395,1.652c0.072,0.551 0.041,1.102 -0.201,1.653c-0.452,1.101 -1.582,2.203 -1.793,3.305c-0.242,1.102 0.12,2.204 0.79,3.306c0.32,0.55 0.665,1.101 0.9,1.652c0.247,0.551 0.359,1.102 0.492,1.653c0.266,1.101 0.547,2.203 0.433,3.305c-0.115,1.102 -0.455,2.204 -0.975,3.306c-0.266,0.55 -0.571,1.101 -0.976,1.652c-0.383,0.551 -0.83,1.102 -1.44,1.653l-0.7,0c-0.611,-0.551 -1.057,-1.102 -1.44,-1.653c-0.405,-0.551 -0.711,-1.102 -0.976,-1.652c-0.52,-1.102 -0.861,-2.204 -0.975,-3.306c-0.114,-1.102 0.167,-2.204 0.433,-3.305c0.133,-0.551 0.245,-1.102 0.491,-1.653c0.236,-0.551 0.581,-1.102 0.901,-1.652c0.67,-1.102 1.032,-2.204 0.789,-3.306c-0.21,-1.102 -1.34,-2.204 -1.793,-3.305c-0.241,-0.551 -0.272,-1.102 -0.2,-1.653c0.06,-0.551 0.193,-1.102 0.394,-1.652c0.418,-1.102 1.047,-2.204 2.376,-3.306l0.7,0Z" style="fill:#3c3c3c;fill-rule:nonzero;"/><path d="M218.566,68.059c1.329,1.102 1.958,2.204 2.376,3.306c0.201,0.55 0.333,1.101 0.395,1.652c0.072,0.551 0.04,1.102 -0.202,1.653c-0.452,1.101 -1.582,2.203 -1.793,3.305c-0.242,1.102 0.12,2.204 0.79,3.306c0.32,0.55 0.665,1.101 0.901,1.652c0.246,0.551 0.358,1.102 0.491,1.653c0.266,1.101 0.547,2.203 0.433,3.305c-0.115,1.102 -0.455,2.204 -0.975,3.306c-0.266,0.55 -0.57,1.101 -0.976,1.652c-0.382,0.551 -0.829,1.102 -1.44,1.653l-0.7,0c-0.611,-0.551 -1.057,-1.102 -1.44,-1.653c-0.405,-0.551 -0.71,-1.102 -0.976,-1.652c-0.52,-1.102 -0.861,-2.204 -0.974,-3.306c-0.115,-1.102 0.166,-2.204 0.432,-3.305c0.134,-0.551 0.245,-1.102 0.491,-1.653c0.236,-0.551 0.581,-1.102 0.901,-1.652c0.67,-1.102 1.032,-2.204 0.79,-3.306c-0.211,-1.102 -1.341,-2.204 -1.793,-3.305c-0.241,-0.551 -0.273,-1.102 -0.201,-1.653c0.061,-0.551 0.193,-1.102 0.394,-1.652c0.419,-1.102 1.048,-2.204 2.376,-3.306l0.7,0Z" style="fill:#3c3c3c;fill-rule:nonzero;"/><path d="M176.669,215.587l-11.939,-11.939c-0.055,-2.312 -0.088,-4.661 -0.098,-7.046c-0.013,-3.38 0.021,-6.689 0.098,-9.925l101.76,-101.76c4.667,-4.667 12.304,-4.667 16.971,0l11.939,11.939c4.667,4.667 4.667,12.303 0,16.97l-101.761,101.761c-3.374,-0.147 -6.899,-0.213 -10.562,-0.174c-2.189,0.024 -4.326,0.083 -6.408,0.174" style="fill:#087e8b;fill-rule:nonzero;"/><path d="M295.4,96.856l-11.939,-11.939c-4.667,-4.667 -12.304,-4.667 -16.971,0l-6.742,6.742c-4.667,4.667 -4.667,12.304 0,16.971l11.939,11.939c4.667,4.667 12.303,4.667 16.97,0l6.743,-6.742c4.667,-4.667 4.667,-12.304 0,-16.971" style="fill:#ff5a5f;fill-rule:nonzero;"/><path d="M287.165,122.061l-28.91,-28.91l-7.12,7.12l28.909,28.911l7.121,-7.121Z" style="fill:#f5f5f5;fill-rule:nonzero;"/><path d="M161.23,226.431l32.278,-10.89c-0.503,-2.339 -1.475,-5.817 -3.481,-9.669c-1.351,-2.595 -5.536,-10.373 -14.709,-15.379c-2.221,-1.211 -5.775,-2.829 -10.543,-3.684l-10.359,32.496c2.981,2.351 5.201,4.9 6.814,7.126Z" style="fill:#f5f5f5;fill-rule:nonzero;stroke:#087e8b;stroke-width:0.1px;stroke-linejoin:miter;stroke-miterlimit:10;"/><path d="M154.416,219.304l-3.316,9.913l10.13,-2.787c-0.957,-1.324 -2.013,-2.592 -3.166,-3.804c-1.097,-1.22 -2.309,-2.331 -3.648,-3.322Z" style="fill:#3c3c3c;fill-rule:nonzero;stroke:#3c3c3c;stroke-width:0.1px;stroke-linejoin:miter;stroke-miterlimit:10;"/></svg>