<svg viewBox="0 0 359 312" xmlns="http://www.w3.org/2000/svg" fill-rule="evenodd" clip-rule="evenodd" stroke-linejoin="round" stroke-miterlimit="1.414"><path d="M353.632 155.962L266.474 5H92.158L5 155.962l87.158 150.962h174.316l87.158-150.962z" fill="#f5f5f5" fill-rule="nonzero" stroke="#3c3c3c" stroke-width="10"/><path fill="#939fab" fill-rule="nonzero" d="M117.644 74.98h129.838v171.287H117.644z"/><path d="M146.908 94.502V68.059v26.443zm.351-26.443c1.329 1.102 1.958 2.204 2.376 3.306.201.55.333 1.101.395 1.652.072.551.04 1.102-.202 1.653-.452 1.101-1.582 2.203-1.793 3.305-.242 1.102.12 2.204.79 3.306.32.55.665 1.101.901 1.652.246.551.358 1.102.491 1.653.266 1.101.547 2.203.433 3.305-.115 1.102-.455 2.204-.975 3.306-.266.55-.57 1.101-.976 1.652a9.286 9.286 0 0 1-1.44 1.653h-.7a9.326 9.326 0 0 1-1.44-1.653 10.313 10.313 0 0 1-.976-1.652c-.52-1.102-.861-2.204-.974-3.306-.115-1.102.166-2.204.432-3.305.134-.551.245-1.102.491-1.653.236-.551.581-1.102.901-1.652.67-1.102 1.032-2.204.79-3.306-.211-1.102-1.341-2.204-1.793-3.305-.241-.551-.273-1.102-.201-1.653a7.072 7.072 0 0 1 .394-1.652c.419-1.102 1.048-2.204 2.376-3.306h.7zm17.827 0c1.328 1.102 1.958 2.204 2.375 3.306.202.55.334 1.101.395 1.652.072.551.041 1.102-.201 1.653-.452 1.101-1.582 2.203-1.793 3.305-.242 1.102.12 2.204.79 3.306.32.55.665 1.101.9 1.652.247.551.359 1.102.492 1.653.266 1.101.547 2.203.433 3.305-.115 1.102-.455 2.204-.975 3.306-.266.55-.571 1.101-.976 1.652a9.367 9.367 0 0 1-1.44 1.653h-.7a9.326 9.326 0 0 1-1.44-1.653 10.166 10.166 0 0 1-.976-1.652c-.52-1.102-.861-2.204-.975-3.306-.114-1.102.167-2.204.433-3.305.133-.551.245-1.102.491-1.653.236-.551.581-1.102.9-1.652.671-1.102 1.033-2.204.79-3.306-.21-1.102-1.34-2.204-1.793-3.305-.241-.551-.272-1.102-.2-1.653.06-.551.193-1.102.394-1.652.418-1.102 1.048-2.204 2.376-3.306h.7zm17.827 0c1.329 1.102 1.958 2.204 2.376 3.306.201.55.333 1.101.395 1.652.071.551.04 1.102-.202 1.653-.451 1.101-1.582 2.203-1.793 3.305-.242 1.102.12 2.204.79 3.306.32.55.665 1.101.901 1.652.246.551.358 1.102.491 1.653.266 1.101.547 2.203.433 3.305-.115 1.102-.455 2.204-.975 3.306-.266.55-.57 1.101-.976 1.652a9.286 9.286 0 0 1-1.44 1.653h-.7a9.326 9.326 0 0 1-1.44-1.653 10.313 10.313 0 0 1-.976-1.652c-.52-1.102-.86-2.204-.974-3.306-.115-1.102.166-2.204.432-3.305.134-.551.245-1.102.491-1.653.236-.551.581-1.102.901-1.652.67-1.102 1.032-2.204.79-3.306-.211-1.102-1.341-2.204-1.793-3.305-.241-.551-.273-1.102-.201-1.653a7.072 7.072 0 0 1 .394-1.652c.419-1.102 1.048-2.204 2.376-3.306h.7zm17.827 0c1.328 1.102 1.958 2.204 2.375 3.306.202.55.334 1.101.395 1.652.072.551.041 1.102-.201 1.653-.452 1.101-1.582 2.203-1.793 3.305-.242 1.102.12 2.204.79 3.306.32.55.665 1.101.9 1.652.247.551.359 1.102.492 1.653.266 1.101.547 2.203.433 3.305-.115 1.102-.455 2.204-.975 3.306-.266.55-.571 1.101-.976 1.652a9.367 9.367 0 0 1-1.44 1.653h-.7a9.326 9.326 0 0 1-1.44-1.653 10.239 10.239 0 0 1-.976-1.652c-.52-1.102-.861-2.204-.975-3.306-.114-1.102.167-2.204.433-3.305.133-.551.245-1.102.491-1.653.236-.551.581-1.102.901-1.652.67-1.102 1.032-2.204.789-3.306-.21-1.102-1.34-2.204-1.793-3.305-.241-.551-.272-1.102-.2-1.653.06-.551.193-1.102.394-1.652.418-1.102 1.047-2.204 2.376-3.306h.7zm17.826 0c1.329 1.102 1.958 2.204 2.376 3.306.201.55.333 1.101.395 1.652.072.551.04 1.102-.202 1.653-.452 1.101-1.582 2.203-1.793 3.305-.242 1.102.12 2.204.79 3.306.32.55.665 1.101.901 1.652.246.551.358 1.102.491 1.653.266 1.101.547 2.203.433 3.305-.115 1.102-.455 2.204-.975 3.306-.266.55-.57 1.101-.976 1.652a9.286 9.286 0 0 1-1.44 1.653h-.7a9.326 9.326 0 0 1-1.44-1.653 10.313 10.313 0 0 1-.976-1.652c-.52-1.102-.861-2.204-.974-3.306-.115-1.102.166-2.204.432-3.305.134-.551.245-1.102.491-1.653.236-.551.581-1.102.901-1.652.67-1.102 1.032-2.204.79-3.306-.211-1.102-1.341-2.204-1.793-3.305-.241-.551-.273-1.102-.201-1.653a7.072 7.072 0 0 1 .394-1.652c.419-1.102 1.048-2.204 2.376-3.306h.7z" fill="#3c3c3c" fill-rule="nonzero"/><path d="M176.669 215.587l-11.939-11.939a359.726 359.726 0 0 1 0-16.971l101.76-101.76c4.667-4.667 12.304-4.667 16.971 0L295.4 96.856c4.667 4.667 4.667 12.303 0 16.97L193.639 215.587a194.966 194.966 0 0 0-16.97 0" fill="#087e8b" fill-rule="nonzero"/><path d="M295.4 96.856l-11.939-11.939c-4.667-4.667-12.304-4.667-16.971 0l-6.742 6.742c-4.667 4.667-4.667 12.304 0 16.971l11.939 11.939c4.667 4.667 12.303 4.667 16.97 0l6.743-6.742c4.667-4.667 4.667-12.304 0-16.971" fill="#ff5a5f" fill-rule="nonzero"/><path d="M287.165 122.061l-28.91-28.91-7.12 7.12 28.909 28.911 7.121-7.121z" fill="#f5f5f5" fill-rule="nonzero"/><path d="M161.23 226.431l32.278-10.89a38.442 38.442 0 0 0-3.481-9.669c-1.351-2.595-5.536-10.373-14.709-15.379-2.221-1.211-5.775-2.829-10.543-3.684l-10.359 32.496a35.859 35.859 0 0 1 6.814 7.126z" fill="#f5f5f5" fill-rule="nonzero" stroke="#087e8b" stroke-width=".1" stroke-linejoin="miter" stroke-miterlimit="10"/><path d="M154.416 219.304l-3.316 9.913 10.13-2.787a36.77 36.77 0 0 0-3.166-3.804 24.485 24.485 0 0 0-3.648-3.322z" fill="#3c3c3c" fill-rule="nonzero" stroke="#3c3c3c" stroke-width=".1" stroke-linejoin="miter" stroke-miterlimit="10"/></svg>